<?xml version="1.0" standalone="no"?>
<!DOCTYPE svg PUBLIC "-//W3C//DTD SVG 1.1//EN" "http://www.w3.org/Graphics/SVG/1.1/DTD/svg11.dtd" >
<svg xmlns="http://www.w3.org/2000/svg">
<metadata></metadata>
<defs>
<font id="constructaregular" horiz-adv-x="1140" >
<font-face units-per-em="2048" ascent="1638" descent="-410" />
<missing-glyph horiz-adv-x="450" />
<glyph horiz-adv-x="2048" />
<glyph horiz-adv-x="2048" />
<glyph unicode="&#xd;" horiz-adv-x="450" />
<glyph unicode=" "  horiz-adv-x="450" />
<glyph unicode="&#x09;" horiz-adv-x="450" />
<glyph unicode="&#xa0;" horiz-adv-x="450" />
<glyph unicode="!" horiz-adv-x="284" d="M39 1495h197l-35 -1106h-121zM45 0v195h195v-195h-195z" />
<glyph unicode="&#x22;" horiz-adv-x="589" d="M51 1495h195l-25 -528h-135zM346 1495h195l-37 -528h-135z" />
<glyph unicode="#" horiz-adv-x="774" d="M25 471v145h165v218h-165v145h165v387h148v-387h115v387h147v-387h150v-145h-150v-218h148v-145h-148v-350h-147v350h-115v-350h-148v350h-165zM338 616h115v218h-115v-218z" />
<glyph unicode="$" horiz-adv-x="655" d="M63 229v152h156v-150q0 -43 12.5 -67.5t47.5 -34.5v522l-60 11q-66 10 -109.5 52t-43.5 152v332q0 115 53 170t160 66v110h100v-110q102 -10 158.5 -63.5t56.5 -172.5v-160h-160v156q0 43 -13 65.5t-42 32.5v-487l65 -10q70 -10 111 -53.5t41 -151.5v-361 q0 -121 -55.5 -176t-161.5 -65v-92h-100v92q-104 10 -160 62t-56 179zM225 909q0 -39 6.5 -57t32.5 -27l15 -4v471q-29 -8 -41.5 -29.5t-12.5 -68.5v-285zM379 129q31 8 46 31.5t15 70.5v316q0 41 -8 58.5t-37 25.5l-16 4v-506z" />
<glyph unicode="%" horiz-adv-x="1128" d="M35 754v596q0 96 44 136t169 40q117 0 164 -37t47 -139v-596q0 -49 -9.5 -83t-33 -54.5t-64.5 -29.5t-104 -9q-57 0 -98 7t-67 26.5t-37 54t-11 88.5zM172 784q0 -47 11.5 -62t64.5 -15q49 0 62.5 14t13.5 63v535q0 43 -11.5 60.5t-64.5 17.5q-47 0 -61.5 -12.5 t-14.5 -65.5v-535zM281 -4l424 1497h133l-424 -1497h-133zM670 145v596q0 96 46 136.5t167 40.5q115 0 163 -36t48 -141v-596q0 -51 -9.5 -84.5t-33 -54t-64.5 -29t-104 -8.5q-117 0 -165 36t-48 140zM807 176q0 -49 12 -63.5t64 -14.5q51 0 63 13.5t12 64.5v535 q0 47 -12 62t-63 15q-47 0 -61.5 -13t-14.5 -64v-535z" />
<glyph unicode="&#x26;" horiz-adv-x="927" d="M39 373v30q0 141 41 249t133 218q-47 113 -81 213.5t-34 180.5q0 49 13.5 94t45 81t82 57.5t123.5 21.5q141 0 197.5 -62.5t56.5 -189.5q0 -57 -18 -112.5t-48 -108t-65.5 -101.5t-70.5 -92q47 -98 97 -206.5t97 -199.5q23 72 34 159t11 190h152q0 -315 -107 -529 q16 -29 30.5 -58.5t31.5 -62.5h119v-145h-238q-14 23 -27.5 46.5t-27.5 47.5q-47 -57 -101.5 -84.5t-126.5 -27.5q-78 0 -137 19t-99 65.5t-61.5 121t-21.5 185.5zM217 362q0 -49 4 -89t18.5 -67.5t42 -43t76.5 -15.5q45 0 79 24t69 73q-66 125 -122 243.5t-91 198.5 q-41 -70 -58.5 -143.5t-17.5 -180.5zM268 1239q0 -29 19.5 -88t54.5 -137q55 66 85 120t30 105q0 63 -18.5 94t-76.5 31q-53 0 -73.5 -29.5t-20.5 -95.5z" />
<glyph unicode="'" horiz-adv-x="294" d="M51 1495h195l-25 -528h-135z" />
<glyph unicode="(" horiz-adv-x="481" d="M51 618q0 242 55.5 458t161.5 419h166q-61 -111 -101 -225.5t-63.5 -227t-33 -221t-9.5 -203.5q0 -211 44 -430t163 -446h-166q-111 209 -164 426t-53 450z" />
<glyph unicode=")" horiz-adv-x="481" d="M55 -258q119 229 163 447.5t44 428.5q0 209 -44 429.5t-163 447.5h166q106 -203 161.5 -420t55.5 -457q0 -233 -53 -449t-164 -427h-166z" />
<glyph unicode="*" horiz-adv-x="589" d="M14 1245l43 121l160 -70l-10 199h147l-12 -199l168 68l45 -123l-178 -61l129 -140l-109 -98l-116 168l-127 -174l-99 102l125 144z" />
<glyph unicode="+" horiz-adv-x="499" d="M23 457v153h147v150h154v-150h149v-153h-149v-148h-154v148h-147z" />
<glyph unicode="," horiz-adv-x="284" d="M-39 -328l98 523h195l-156 -523h-137z" />
<glyph unicode="-" horiz-adv-x="524" d="M37 457v153h450v-153h-450z" />
<glyph unicode="." horiz-adv-x="284" d="M45 0v195h195v-195h-195z" />
<glyph unicode="/" horiz-adv-x="774" d="M6 -2l586 1495h160l-586 -1495h-160z" />
<glyph unicode="0" horiz-adv-x="692" d="M59 260v977q0 76 14.5 129t47.5 86t88 47t139 14q80 0 135.5 -14t89 -46t48 -85t14.5 -131v-977q0 -82 -14.5 -135t-47 -85t-88 -44t-137.5 -12q-80 0 -135 13t-89 46t-49.5 85t-15.5 132zM231 260q0 -39 4.5 -62.5t17.5 -37t35.5 -18.5t59.5 -5q72 0 94.5 22.5 t22.5 100.5v977q0 39 -5 63.5t-18.5 38t-36 17.5t-57.5 4q-33 0 -55.5 -3t-35.5 -15.5t-19.5 -37t-6.5 -67.5v-977z" />
<glyph unicode="1" horiz-adv-x="542" d="M20 1358v137h340v-1358h160v-137h-493v137h159v1221h-166z" />
<glyph unicode="2" horiz-adv-x="673" d="M27 0v119q66 117 127 227q25 47 52 97.5t52 99.5t47.5 93t38.5 81q37 84 60.5 146.5t37 118.5t18.5 115.5t5 135.5q0 78 -29.5 102.5t-89.5 24.5q-27 0 -49.5 -4t-37.5 -17.5t-24.5 -38t-9.5 -67.5v-197h-155v181q0 160 64.5 228t211.5 68q74 0 127 -12t89 -45t53.5 -91 t17.5 -148q0 -61 -4 -118t-16.5 -117t-37 -131t-67.5 -165q-39 -86 -88 -182t-92 -180q-53 -98 -105 -193h271v279h157v-410h-624z" />
<glyph unicode="3" horiz-adv-x="673" d="M63 301v109h156v-103q0 -51 6 -84t19.5 -52t37 -26.5t58.5 -7.5q61 0 88 26.5t27 117.5v278q0 72 -29 109t-80 37h-151v151h151q47 0 75 20.5t28 96.5v274q0 63 -26 88t-83 25t-88 -22.5t-31 -90.5v-123h-155v72q0 88 13 148.5t45 98.5t84 54t132 16t133 -17t87 -55 t48.5 -98.5t14.5 -146.5v-272q0 -43 -26 -85t-89 -59q117 -29 117 -147v-332q0 -86 -13.5 -145.5t-45 -98.5t-87 -56t-139.5 -17q-76 0 -128 14t-85 50t-48.5 97.5t-15.5 155.5z" />
<glyph unicode="4" horiz-adv-x="727" d="M23 293v135l356 1067h172v-1067h135v-139h-137v-152h108v-137h-395v137h119v156h-358zM182 426h205v692z" />
<glyph unicode="5" horiz-adv-x="667" d="M49 745l39 750h520l-14 -152h-348q-6 -111 -13 -198q-2 -39 -4 -76t-4 -67.5t-3 -51t-1 -26.5q16 23 71.5 42t125.5 19q63 0 103 -12t61.5 -44t28.5 -86.5t7 -135.5v-398q0 -88 -10 -150.5t-40.5 -101.5t-86 -56t-145.5 -17q-84 0 -137.5 17t-84 57t-43 106.5 t-12.5 165.5v80h160v-113q0 -41 3 -70.5t15.5 -49t37 -30t65.5 -10.5q35 0 56.5 7.5t32.5 26.5t15.5 52t4.5 84v381q0 43 -3.5 70.5t-13.5 43t-28.5 20.5t-51.5 5q-72 0 -121 -43t-71 -102z" />
<glyph unicode="6" horiz-adv-x="675" d="M59 297v924q0 168 74 232.5t219 64.5q68 0 119 -13.5t87 -47.5t53.5 -91t17.5 -145v-129h-156v139q0 68 -24.5 100.5t-96.5 32.5q-59 0 -92 -25.5t-33 -107.5v-397q29 33 78 46t103 13q66 0 108.5 -16.5t67 -50t35 -87t10.5 -125.5v-317q0 -84 -13.5 -142.5t-46 -95 t-88 -54t-137.5 -17.5q-160 0 -222.5 76.5t-62.5 232.5zM227 274q0 -80 23.5 -106.5t93.5 -26.5q68 0 92.5 23.5t24.5 109.5v340q0 72 -23.5 100.5t-95.5 28.5q-61 0 -88 -24.5t-27 -104.5v-340z" />
<glyph unicode="7" horiz-adv-x="673" d="M39 1124v371h610v-106l-309 -1389h-160l299 1360h-276v-236h-164z" />
<glyph unicode="8" horiz-adv-x="677" d="M59 266v348q0 59 23.5 97.5t77.5 66.5q-47 16 -73 62.5t-26 101.5v320q0 57 12.5 103t45.5 79t86 51t137 18q145 0 209.5 -60t64.5 -189v-324q0 -23 -4 -48.5t-14 -48t-28.5 -40t-49.5 -25.5q51 -18 76 -62t25 -102v-344q0 -76 -12.5 -130t-43 -89t-85 -51t-140.5 -16 q-80 0 -133 16t-86 50t-47.5 87t-14.5 129zM227 256q0 -76 24.5 -97.5t90.5 -21.5q37 0 58.5 4t33.5 16.5t15.5 36t3.5 62.5v326q0 35 -3.5 58.5t-15.5 37.5t-34.5 20.5t-59.5 6.5q-35 0 -57.5 -5.5t-34.5 -18.5t-16.5 -38t-4.5 -63v-324zM233 975q0 -72 20.5 -99.5 t86.5 -27.5t87.5 25.5t21.5 99.5v256q0 78 -20.5 104.5t-88.5 26.5q-35 0 -55.5 -5t-31.5 -19.5t-15.5 -40t-4.5 -66.5v-254z" />
<glyph unicode="9" horiz-adv-x="675" d="M53 281v129h156v-140q0 -72 24.5 -102.5t96.5 -30.5q66 0 95.5 26.5t29.5 106.5v398q-29 -33 -80 -46.5t-105 -13.5q-57 0 -98 12.5t-67.5 46t-39 91t-12.5 149.5v297q0 86 13.5 144.5t46 95.5t88 53t137.5 16q158 0 221.5 -75.5t63.5 -233.5v-923q0 -152 -64.5 -224.5 t-228.5 -72.5q-154 0 -215.5 69.5t-61.5 227.5zM221 887q0 -37 4 -61.5t16.5 -40t36 -21.5t62.5 -6q66 0 90.5 25.5t24.5 103.5v340q0 78 -22.5 105.5t-94.5 27.5t-94.5 -26.5t-22.5 -106.5v-340z" />
<glyph unicode=":" horiz-adv-x="346" d="M76 0v195h194v-195h-194zM76 729v195h194v-195h-194z" />
<glyph unicode=";" horiz-adv-x="346" d="M-23 -328l99 523h194l-155 -523h-138zM76 729v195h194v-195h-194z" />
<glyph unicode="&#x3c;" horiz-adv-x="675" d="M70 463v131l534 317v-168l-342 -211l342 -198v-168z" />
<glyph unicode="=" horiz-adv-x="524" d="M37 342v154h450v-154h-450zM37 592v153h450v-153h-450z" />
<glyph unicode="&#x3e;" horiz-adv-x="675" d="M72 166v168l342 198l-342 211v168l534 -317v-131z" />
<glyph unicode="?" horiz-adv-x="638" d="M45 1030v223q0 76 21.5 126.5t58.5 80t89 41.5t114 12q61 0 112.5 -12t88 -43t56 -81t19.5 -126v-391q0 -37 -10 -74.5t-29.5 -67.5t-50.5 -48.5t-70 -18.5h-61l-8 -262h-144l-12 414q33 -2 60 -4q23 -2 45 -3t30 -1q47 0 67.5 32.5t20.5 90.5v327q0 68 -26.5 95.5 t-87.5 27.5q-55 0 -83 -22.5t-28 -100.5v-215h-172zM207 0v195h194v-195h-194z" />
<glyph unicode="@" horiz-adv-x="788" d="M47 459v411q0 59 19.5 114.5t61.5 97.5t108.5 67t160.5 25q158 0 248 -83t90 -221v-532h-282v45q-43 -55 -129 -55q-23 0 -42.5 5t-34 19.5t-22.5 41t-8 67.5v133q0 72 31 111.5t100 39.5q29 0 55.5 -8t49.5 -28v143q0 35 -12.5 50.5t-49.5 15.5q-25 0 -40 -11.5 t-15 -54.5v-39h-113v45q0 78 40 118t132 40q90 0 130 -37t40 -121v-438h84v444q0 98 -65.5 160.5t-188.5 62.5q-119 0 -190.5 -55t-71.5 -168v-403q0 -94 68.5 -154.5t191.5 -60.5v-84q-166 0 -256 78.5t-90 218.5zM324 479q0 -29 11 -41t44 -12q29 0 51.5 15.5t22.5 58.5 v82q0 35 -20.5 51t-53.5 16q-23 0 -39 -9t-16 -44v-117z" />
<glyph unicode="A" horiz-adv-x="935" d="M20 0v145h91l231 1205h-109v145h340l263 -1350h90v-145h-381v145h104l-49 283h-270l-49 -283h116v-145h-377zM354 573h221l-116 617z" />
<glyph unicode="B" horiz-adv-x="860" d="M39 0v145h111v1205h-111v145h430q156 0 230.5 -64.5t74.5 -211.5v-236q0 -86 -34.5 -135t-121.5 -72q78 -12 122 -60t44 -141v-299q0 -137 -68.5 -206.5t-236.5 -69.5h-440zM336 145h121q80 0 110.5 36t30.5 104v280q0 63 -29.5 101.5t-111.5 38.5h-121v-560zM336 850 h110q78 0 110 36t32 103v221q0 63 -30 101.5t-112 38.5h-110v-500z" />
<glyph unicode="C" horiz-adv-x="800" d="M82 264v967q0 135 74.5 208.5t244.5 73.5q166 0 243 -73.5t77 -208.5v-166h-186v174q0 68 -28 98.5t-106 30.5q-72 0 -102.5 -25.5t-30.5 -103.5v-983q0 -70 29 -99.5t104 -29.5q72 0 103 27.5t31 101.5v154h186v-146q0 -131 -74 -206.5t-246 -75.5q-166 0 -242.5 70.5 t-76.5 211.5z" />
<glyph unicode="D" horiz-adv-x="854" d="M39 0v145h111v1205h-111v145h450q160 0 233 -64.5t73 -211.5v-943q0 -137 -70 -206.5t-236 -69.5h-450zM336 145h131q80 0 110.5 36t30.5 104v925q0 63 -29.5 101.5t-111.5 38.5h-131v-1205z" />
<glyph unicode="E" horiz-adv-x="837" d="M39 0v145h111v1205h-111v145h731v-403h-186v258h-248v-500h289v-145h-289v-560h250v265h186v-410h-733z" />
<glyph unicode="F" horiz-adv-x="813" d="M39 0v145h111v1205h-111v145h711v-371h-187v226h-227v-500h268v-145h-268v-560h119v-145h-416z" />
<glyph unicode="G" horiz-adv-x="802" d="M82 264v967q0 135 73.5 208.5t247.5 73.5q166 0 244 -70.5t78 -211.5v-156h-186v164q0 66 -27 97.5t-109 31.5q-70 0 -102.5 -25.5t-32.5 -103.5v-983q0 -72 29 -100.5t106 -28.5q72 0 104 27.5t32 101.5v324h-142v145h328v-461q0 -133 -72.5 -207.5t-249.5 -74.5 q-168 0 -244.5 70.5t-76.5 211.5z" />
<glyph unicode="H" horiz-adv-x="950" d="M39 0v145h111v1205h-111v145h397v-145h-100v-500h282v500h-100v145h397v-145h-110v-1205h110v-145h-397v145h100v560h-282v-560h100v-145h-397z" />
<glyph unicode="I" horiz-adv-x="505" d="M43 0v145h111v1205h-111v145h408v-145h-111v-1205h111v-145h-408z" />
<glyph unicode="J" horiz-adv-x="757" d="M35 268v142h186v-150q0 -55 22.5 -92t92.5 -37q66 0 89.5 29.5t23.5 107.5v1082h-105v145h397v-145h-104v-1082q0 -152 -75 -219t-222 -67q-152 0 -228.5 65.5t-76.5 220.5z" />
<glyph unicode="K" horiz-adv-x="956" d="M39 0v145h111v1205h-111v145h397v-145h-100v-459l266 459h-84v145h397v-145h-118l-322 -537l377 -668h84v-145h-397v145h100l-303 553v-553h100v-145h-397z" />
<glyph unicode="L" horiz-adv-x="798" d="M39 0v145h111v1205h-111v145h416v-145h-119v-1205h227v265h187v-410h-711z" />
<glyph unicode="M" horiz-adv-x="1138" d="M39 0v145h111v1205h-111v145h311l223 -836l220 836h307v-145h-111v-1205h111v-145h-381v145h100v850l-235 -850h-29l-233 850v-850h100v-145h-383z" />
<glyph unicode="N" horiz-adv-x="950" d="M39 0v145h111v1205h-111v145h283l323 -960v815h-100v145h377v-145h-111v-1350h-156l-340 1006v-861h101v-145h-377z" />
<glyph unicode="O" horiz-adv-x="835" d="M82 279v938q0 156 79 226t257 70q170 0 253 -67.5t83 -228.5v-938q0 -158 -79 -227.5t-257 -69.5q-172 0 -254 66.5t-82 230.5zM268 270q0 -78 34 -110.5t116 -32.5q78 0 113.5 30.5t35.5 112.5v955q0 78 -32.5 110.5t-116.5 32.5q-74 0 -112 -27.5t-38 -115.5v-955z" />
<glyph unicode="P" horiz-adv-x="854" d="M39 0v145h111v1205h-111v145h446q154 0 230 -64.5t76 -211.5v-351q0 -137 -69 -206.5t-237 -69.5h-149v-447h110v-145h-407zM336 737h127q80 0 110.5 37t30.5 103v333q0 63 -28.5 101.5t-112.5 38.5h-127v-613z" />
<glyph unicode="Q" horiz-adv-x="835" d="M82 279v938q0 158 80 227t256 69q170 0 253 -68.5t83 -227.5v-938q0 -145 -63.5 -212t-190.5 -79q0 -72 57 -109t150 -37h34v-157h-39q-162 0 -260 69.5t-120 233.5q-53 8 -97.5 25.5t-76 51t-49 85t-17.5 129.5zM268 270q0 -78 34 -110.5t116 -32.5q78 0 113.5 29.5 t35.5 113.5v955q0 78 -32.5 110.5t-116.5 32.5q-74 0 -112 -27.5t-38 -115.5v-955z" />
<glyph unicode="R" horiz-adv-x="897" d="M39 0v145h111v1205h-111v145h432q160 0 232.5 -66.5t72.5 -209.5v-258q0 -86 -35.5 -137.5t-122.5 -69.5q160 -37 160 -201v-350q0 -35 10.5 -46.5t42.5 -11.5h46v-145h-125q-74 0 -117 36t-43 142v365q0 63 -30 101t-111 38h-115v-537h106v-145h-403zM336 827h113 q80 0 110.5 37t30.5 103v243q0 63 -30 101.5t-111 38.5h-113v-523z" />
<glyph unicode="S" horiz-adv-x="770" d="M66 238v172h186v-170q0 -61 27.5 -87t101.5 -26q68 0 98.5 22.5t30.5 90.5v335q0 51 -14.5 67.5t-67.5 27.5l-178 26q-96 12 -138 57.5t-42 157.5v346q0 131 73.5 193.5t237.5 62.5q145 0 228 -57t83 -199v-165h-186v163q0 59 -27.5 86t-97.5 27q-59 0 -92 -23.5 t-33 -89.5v-299q0 -53 15.5 -69.5t66.5 -24.5l178 -26q94 -12 137 -58.5t43 -156.5v-383q0 -135 -77.5 -195.5t-237.5 -60.5q-74 0 -133.5 12t-99 40.5t-61 79t-21.5 124.5z" />
<glyph unicode="T" horiz-adv-x="847" d="M33 1092v403h780v-403h-166v266h-131v-1213h119v-145h-424v145h119v1213h-131v-266h-166z" />
<glyph unicode="U" horiz-adv-x="921" d="M29 1350v145h395v-145h-98v-1094q0 -66 30.5 -97.5t108.5 -31.5q72 0 105.5 29.5t33.5 99.5v1094h-98v145h387v-145h-111v-1082q0 -145 -77.5 -215.5t-243.5 -70.5q-158 0 -240 66.5t-82 219.5v1082h-110z" />
<glyph unicode="V" horiz-adv-x="946" d="M20 1350v145h388v-145h-93l172 -1035l160 1035h-104v145h383v-145h-90l-263 -1350h-200l-262 1350h-91z" />
<glyph unicode="W" horiz-adv-x="1359" d="M29 1350v145h409v-145h-100l125 -895l155 1040h146l143 -1042l131 897h-100v145h383v-145h-111l-231 -1350h-166l-135 977l-148 -977h-165l-226 1350h-110z" />
<glyph unicode="X" horiz-adv-x="942" d="M20 0v145h111l225 605l-219 600h-110v145h407v-145h-100l123 -402l129 402h-101v145h400v-145h-111l-225 -590l225 -615h123v-145h-414v145h101l-142 428l-131 -428h101v-145h-392z" />
<glyph unicode="Y" horiz-adv-x="944" d="M33 1350v145h387v-145h-105l158 -539l166 539h-123v145h395v-145h-102l-244 -707v-498h101v-145h-400v145h101v498l-234 707h-100z" />
<glyph unicode="Z" horiz-adv-x="718" d="M37 0v121l440 1218h-268v-247h-164v403h633v-135l-440 -1204h284v254h168v-410h-653z" />
<glyph unicode="[" horiz-adv-x="483" d="M41 -258v1753h395v-135h-237v-1483h237v-135h-395z" />
<glyph unicode="\" horiz-adv-x="774" d="M6 1493h160l586 -1495h-160z" />
<glyph unicode="]" horiz-adv-x="483" d="M41 -123h238v1483h-238v135h395v-1753h-395v135z" />
<glyph unicode="^" horiz-adv-x="602" d="M49 1030l203 465h115l194 -465h-155l-101 223l-96 -223h-160z" />
<glyph unicode="_" horiz-adv-x="792" d="M0 -106h793v-154h-793v154z" />
<glyph unicode="`" horiz-adv-x="618" d="M100 1325h170l123 -289h-125z" />
<glyph unicode="a" horiz-adv-x="677" d="M61 172v182q0 104 44.5 157.5t148.5 53.5q96 0 158 -49v197q0 43 -18.5 67.5t-71.5 24.5q-39 0 -64 -16.5t-25 -75.5v-56h-159v64q0 111 59.5 165t192.5 54q129 0 188 -50t59 -169v-592h86v-129h-247v63q-71 -77 -190 -77h-3q-70 0 -114 38.5t-44 147.5zM223 197 q0 -41 16.5 -57.5t57.5 -16.5q53 0 84 22.5t31 79.5v115q0 49 -32 70.5t-83 21.5q-31 0 -52.5 -13t-21.5 -61v-161z" />
<glyph unicode="b" horiz-adv-x="716" d="M31 0v129h86v1237h-86v129h250v-633q33 35 80 56.5t106 21.5q100 0 143 -49t43 -146v-534q0 -111 -47 -168t-149 -57q-63 0 -101.5 15t-70.5 54l-4 -55h-250zM281 242q0 -53 25.5 -84t86.5 -31q47 0 71.5 18.5t24.5 71.5v492q0 41 -17 65.5t-79 24.5q-51 0 -81.5 -25.5 t-30.5 -89.5v-442z" />
<glyph unicode="c" horiz-adv-x="641" d="M63 197v532q0 88 59.5 149.5t201.5 61.5q135 0 197.5 -59.5t62.5 -151.5v-102h-164v86q0 39 -18.5 65.5t-77.5 26.5q-55 0 -76 -22.5t-21 -69.5v-500q0 -18 3 -34.5t13.5 -30t29 -20.5t51.5 -7q57 0 76.5 23.5t19.5 68.5v98h164v-114q0 -43 -12.5 -81t-43 -67t-81 -46 t-123.5 -17q-72 0 -122 16t-81 45t-44.5 67t-13.5 83z" />
<glyph unicode="d" horiz-adv-x="708" d="M63 180v535q0 225 201 225q57 0 97 -16.5t75 -53.5v38v65v81v87v225h-86v129h250v-1366h86v-129h-250v63q-33 -35 -78 -56t-108 -21q-98 0 -142.5 47t-44.5 147zM227 217q0 -41 17.5 -65.5t79.5 -24.5q53 0 82.5 26.5t29.5 88.5v442q0 53 -26.5 84t-85.5 31 q-47 0 -72 -19.5t-25 -70.5v-492z" />
<glyph unicode="e" horiz-adv-x="645" d="M63 213v500q0 106 60.5 166.5t204.5 60.5q141 0 202.5 -57.5t61.5 -169.5v-289h-365v-209q0 -43 18.5 -68.5t82.5 -25.5q53 0 76.5 23.5t23.5 70.5v96h164v-98q0 -109 -60.5 -168t-203.5 -59q-141 0 -203 58t-62 169zM227 553h201v158q0 43 -20.5 68.5t-79.5 25.5 q-51 0 -76 -20.5t-25 -73.5v-158z" />
<glyph unicode="f" horiz-adv-x="432" d="M45 0v129h86v668h-86v129h86v432q0 66 40 110.5t136 44.5q31 0 63.5 -2t49.5 -10v-139q-14 4 -32.5 8t-41.5 4t-37 -11t-14 -40v-397h96v-129h-96v-668h86v-129h-336z" />
<glyph unicode="g" horiz-adv-x="712" d="M63 180v535q0 225 197 225q63 0 103 -17.5t73 -52.5v56h250v-129h-86v-947q0 -125 -55.5 -182t-188.5 -57q-59 0 -106 5t-80 17v144q72 -27 168 -27q45 0 71.5 18.5t26.5 71.5v223q-33 -35 -79 -56t-107 -21q-98 0 -142.5 46t-44.5 148zM231 217q0 -41 17.5 -65.5 t79.5 -24.5q53 0 82.5 26.5t29.5 88.5v442q0 51 -24.5 83t-87.5 32q-51 0 -74 -20.5t-23 -69.5v-492z" />
<glyph unicode="h" horiz-adv-x="747" d="M31 0v129h86v1237h-86v129h250v-633q35 37 82 57.5t112 20.5q86 0 126 -45t40 -135v-631h86v-129h-319v129h69v600q0 31 -15.5 50.5t-62.5 19.5q-59 0 -88.5 -27t-29.5 -88v-555h69v-129h-319z" />
<glyph unicode="i" horiz-adv-x="405" d="M45 0v129h86v668h-86v129h250v-797h86v-129h-336zM111 1188v211h180v-211h-180z" />
<glyph unicode="j" horiz-adv-x="387" d="M-10 -240q14 -6 36.5 -8t39.5 -2q29 0 45 11.5t16 43.5v992h-86v129h250v-1145q0 -78 -43 -124t-135 -46q-41 0 -70 2t-53 10v137zM106 1188v211h181v-211h-181z" />
<glyph unicode="k" horiz-adv-x="722" d="M31 0v129h86v1237h-86v129h250v-967l170 269h-72v129h305v-129h-72l-196 -303l200 -365h91v-129h-199l-227 424v-295h73v-129h-323z" />
<glyph unicode="l" horiz-adv-x="409" d="M31 0v129h86v1237h-86v129h250v-1366h86v-129h-336z" />
<glyph unicode="m" horiz-adv-x="1097" d="M41 0v129h86v668h-86v129h250v-64q33 35 79 56.5t111 21.5q63 0 97 -22.5t51 -67.5q47 47 94 68.5t111 21.5q72 0 116.5 -39t44.5 -141v-631h86v-129h-319v129h69v600q0 31 -16 50.5t-57 19.5q-53 0 -84 -27t-31 -88v-555h70v-129h-303v129h69v600q0 33 -16.5 51.5 t-56.5 18.5q-53 0 -84 -25.5t-31 -89.5v-555h69v-129h-319z" />
<glyph unicode="n" horiz-adv-x="755" d="M41 0v129h86v668h-86v129h250v-64q72 78 194 78q166 0 166 -184v-627h86v-129h-319v129h69v600q0 31 -16 50.5t-61 19.5q-119 0 -119 -115v-555h69v-129h-319z" />
<glyph unicode="o" horiz-adv-x="663" d="M63 213v500q0 106 60.5 166.5t208.5 60.5q141 0 204.5 -56.5t63.5 -170.5v-500q0 -106 -59.5 -166.5t-208.5 -60.5q-141 0 -205 56t-64 171zM227 215q0 -47 19.5 -70.5t85.5 -23.5t85 23.5t19 70.5v496q0 41 -19.5 67.5t-84.5 26.5q-55 0 -80 -21.5t-25 -72.5v-496z" />
<glyph unicode="p" horiz-adv-x="720" d="M31 -250h86v1047h-86v129h250v-64q33 35 80 56.5t106 21.5q98 0 142 -49t44 -146v-534q0 -109 -46 -167t-150 -58q-61 0 -100.5 14t-75.5 55v-305h86v-129h-336v129zM281 242q0 -53 26.5 -84t85.5 -31q53 0 74.5 21.5t21.5 68.5v492q0 41 -17 65.5t-79 24.5 q-51 0 -81.5 -24.5t-30.5 -90.5v-442z" />
<glyph unicode="q" horiz-adv-x="712" d="M63 180v535q0 106 47.5 165.5t149.5 59.5q63 0 103 -17.5t73 -52.5v56h250v-129h-86v-1047h86v-129h-336v129h86v313q-33 -35 -77 -56t-109 -21q-100 0 -143.5 47t-43.5 147zM227 217q0 -39 17.5 -64.5t79.5 -25.5q53 0 82.5 26.5t29.5 88.5v442q0 51 -25.5 83t-86.5 32 q-53 0 -75 -21.5t-22 -68.5v-492z" />
<glyph unicode="r" horiz-adv-x="643" d="M41 0v129h86v668h-86v129h250v-64q63 78 168 78q139 0 139 -135v-168h-164v94q0 68 -59 68q-37 0 -60.5 -19.5t-23.5 -68.5v-582h86v-129h-336z" />
<glyph unicode="s" horiz-adv-x="618" d="M59 174v119h164v-98q0 -37 18.5 -55.5t67.5 -18.5q88 0 88 74v131q0 45 -51 55l-156 29q-59 12 -93 39.5t-34 93.5v213q0 86 57.5 135t188.5 49q121 0 183.5 -46t62.5 -138v-131h-164v106q0 35 -18.5 54.5t-63.5 19.5q-84 0 -84 -74v-125q0 -47 51 -55l156 -29 q59 -10 93 -41.5t34 -91.5v-219q0 -86 -57.5 -135t-192.5 -49q-250 0 -250 188z" />
<glyph unicode="t" horiz-adv-x="464" d="M31 797v129h80v370l163 35v-405h134v-129h-134v-668h134v-129h-297v797h-80z" />
<glyph unicode="u" horiz-adv-x="745" d="M18 797v129h250v-729q0 -33 15.5 -51.5t62.5 -18.5q119 0 119 115v555h-70v129h234v-797h86v-129h-250v63q-31 -35 -77 -56t-118 -21q-90 0 -128 44t-38 136v631h-86z" />
<glyph unicode="v" horiz-adv-x="747" d="M14 797v129h318v-129h-80l131 -564l119 564h-92v129h313v-129h-74l-198 -797h-164l-199 797h-74z" />
<glyph unicode="w" horiz-adv-x="1028" d="M4 797v129h336v-129h-86l76 -453l123 582h122l119 -582l74 453h-70v129h299v-129h-86l-161 -797h-127l-121 618l-135 -618h-121l-156 797h-86z" />
<glyph unicode="x" horiz-adv-x="753" d="M16 0v129h86l183 330l-179 338h-75v129h321v-129h-63l90 -195l96 195h-63v129h288v-129h-86l-159 -310l196 -358h86v-129h-336v129h68l-115 207l-106 -207h78v-129h-310z" />
<glyph unicode="y" horiz-adv-x="686" d="M16 797v129h250v-690q0 -70 14.5 -89.5t65.5 -19.5q47 0 63.5 28.5t16.5 75.5v566h-88v129h252v-1090q0 -119 -58.5 -172t-189.5 -53q-45 0 -75.5 2t-51.5 6q-23 4 -39 8v144q16 -6 39 -11q20 -4 48 -7t67 -3q59 0 77.5 30t18.5 60v203q-20 -23 -55 -40t-88 -17 q-47 0 -82 8t-56.5 31.5t-32 68.5t-10.5 119v584h-86z" />
<glyph unicode="z" horiz-adv-x="614" d="M37 0v113l356 690h-209v-160h-135v283h522v-115l-356 -688h227v180h136v-303h-541z" />
<glyph unicode="{" horiz-adv-x="585" d="M25 559v123q45 0 78.5 35t33.5 102v463q0 51 9.5 91t32 67.5t62.5 41t99 13.5h221v-145h-127q-76 0 -101.5 -22.5t-25.5 -82.5v-434q0 -133 -100 -193q41 -20 70.5 -68t29.5 -147v-409q0 -33 6 -53.5t22.5 -31.5t45.5 -15.5t74 -4.5h106v-145h-217q-98 0 -152.5 56.5 t-54.5 154.5v446q0 70 -23.5 108t-88.5 50z" />
<glyph unicode="|" horiz-adv-x="233" d="M37 -379v1874h160v-1874h-160z" />
<glyph unicode="}" horiz-adv-x="585" d="M25 -111h127q72 0 99.5 20.5t27.5 84.5v409q0 96 26.5 143.5t73.5 71.5q-43 25 -69.5 71t-30.5 122v434q0 63 -33 84t-94 21h-127v145h211q111 0 162 -44t51 -169v-463q0 -61 29.5 -97t82.5 -40v-123q-72 -16 -92 -54t-20 -104v-446q0 -100 -59.5 -155.5t-153.5 -55.5 h-211v145z" />
<glyph unicode="~" horiz-adv-x="768" d="M49 444q0 27 11.5 71t34 84t56 69.5t80.5 29.5q43 0 84 -17t81 -38.5t76 -39t67 -17.5q27 0 44 10t28.5 25.5t16.5 33t7 31.5h88q0 -27 -11.5 -70t-33 -83.5t-55 -70.5t-78.5 -30q-41 0 -84 17.5t-85 38t-79 38t-64 19.5q-25 0 -42 -11.5t-28 -26.5t-17.5 -32.5 t-8.5 -30.5h-88z" />
<glyph horiz-adv-x="718" d="M37 0v121l440 1218h-268v-247h-164v403h633v-135l-440 -1204h284v254h168v-410h-653zM164 1851h117l90 -182l90 182h117l-121 -288h-172z" />
<glyph horiz-adv-x="614" d="M37 0v113l356 690h-209v-160h-135v283h522v-115l-356 -688h227v180h136v-303h-541zM94 1325h117l90 -182l90 182h117l-121 -289h-172z" />
<glyph unicode="&#xa1;" horiz-adv-x="284" d="M39 -250l41 1106h121l35 -1106h-197zM45 1051v194h195v-194h-195z" />
<glyph unicode="&#xa2;" horiz-adv-x="583" d="M43 432v533q0 80 47 138t160 71v120h98v-120q113 -10 164 -66.5t51 -142.5v-103h-145v86q0 39 -14.5 60.5t-55.5 27.5v-678q45 4 57.5 23.5t12.5 67.5v98h145v-115q0 -78 -48 -138.5t-167 -70.5v-149h-98v149q-109 12 -158 67.5t-49 141.5zM188 449q0 -43 11.5 -63.5 t50.5 -27.5v678q-37 -8 -49.5 -27.5t-12.5 -60.5v-499z" />
<glyph unicode="&#xa3;" horiz-adv-x="759" d="M41 709v151h94v361q0 152 66.5 224.5t224.5 72.5q78 0 130 -18.5t84 -54.5t45 -87t13 -119v-115h-155v97q0 84 -22.5 113.5t-94.5 29.5q-68 0 -95.5 -27.5t-27.5 -115.5v-361h219v-151h-219v-564h182q51 0 83 25t50 53q23 35 31 78l119 -72q-14 -63 -45 -114 q-27 -43 -74 -79t-123 -36h-483v147h92v562h-94z" />
<glyph unicode="&#xa4;" d="M14 539q0 113 39 214t111 177t175 120t230 44q125 0 227.5 -43t175 -118t112.5 -176t40 -218q0 -111 -43 -212.5t-117.5 -177t-176 -120.5t-218.5 -45q-113 0 -214 43t-177 118.5t-120 177t-44 216.5zM213 745q0 -49 18.5 -92t51 -75.5t75.5 -51t93 -18.5q49 0 92 18.5 t75.5 51t51 75.5t18.5 92t-18.5 92.5t-51 76t-75.5 51t-92 18.5t-92.5 -18.5t-76 -51t-51 -75.5t-18.5 -93zM332 657v74q0 20 39 35q-39 6 -39 33v69q0 23 19.5 37.5t82.5 14.5t83 -14.5t20 -37.5v-67q0 -16 -7.5 -23.5t-31.5 -11.5q39 -6 39 -35v-74q0 -31 -17.5 -46 t-85.5 -15q-59 0 -80.5 11t-21.5 50zM393 653q0 -14 7.5 -19t33.5 -5q27 0 34 6t7 18v70q0 12 -7 19.5t-34 7.5q-25 0 -33 -7.5t-8 -21.5v-68zM393 807q0 -27 41 -27t41 27v53q0 14 -8 21.5t-33 7.5q-41 0 -41 -29v-53z" />
<glyph unicode="&#xa5;" horiz-adv-x="929" d="M25 1350v145h387v-145h-105l158 -539l166 539h-123v145h395v-145h-102l-244 -707v-27h246v-116h-246v-121h246v-117h-246v-117h100v-145h-399v145h100v117h-245v117h245v121h-245v116h245v27l-233 707h-100z" />
<glyph unicode="&#xa6;" d="M14 539q0 113 39 214t111 177t175 120t230 44q125 0 227.5 -43t175 -118t112.5 -176t40 -218q0 -111 -43 -212.5t-117.5 -177t-176 -120.5t-218.5 -45q-113 0 -214 43t-177 118.5t-120 177t-44 216.5zM213 745q0 -49 18.5 -92t51 -75.5t75.5 -51t93 -18.5q49 0 92 18.5 t75.5 51t51 75.5t18.5 92t-18.5 92.5t-51 76t-75.5 51t-92 18.5t-92.5 -18.5t-76 -51t-51 -75.5t-18.5 -93zM332 657v74q0 20 39 35q-39 6 -39 33v69q0 23 19.5 37.5t82.5 14.5t83 -14.5t20 -37.5v-67q0 -16 -7.5 -23.5t-31.5 -11.5q39 -6 39 -35v-74q0 -31 -17.5 -46 t-85.5 -15q-59 0 -80.5 11t-21.5 50zM393 653q0 -14 7.5 -19t33.5 -5q27 0 34 6t7 18v70q0 12 -7 19.5t-34 7.5q-25 0 -33 -7.5t-8 -21.5v-68zM393 807q0 -27 41 -27t41 27v53q0 14 -8 21.5t-33 7.5q-41 0 -41 -29v-53z" />
<glyph unicode="&#xa7;" horiz-adv-x="761" d="M66 481v230q0 66 19 109.5t87 70.5q-55 16 -78.5 55t-23.5 88v223q0 141 78.5 198.5t232.5 57.5q143 0 227 -55t84 -201v-165h-176v163q0 63 -32.5 91t-102.5 28q-59 0 -97 -23.5t-38 -95.5v-165q0 -53 20.5 -69.5t71.5 -25.5l178 -26q94 -12 137 -56.5t43 -158.5v-230 q0 -66 -19.5 -109.5t-86.5 -70.5q55 -16 78.5 -56t23.5 -87v-224q0 -137 -78.5 -196.5t-232.5 -59.5q-70 0 -127 12.5t-98 41t-63.5 79t-22.5 123.5v166h176v-163q0 -66 33.5 -92.5t101.5 -26.5q63 0 99 24.5t36 94.5v165q0 51 -19.5 67.5t-72.5 27.5l-178 26 q-47 6 -82 18.5t-56.5 37t-31.5 63.5t-10 96zM242 518q0 -63 34.5 -85.5t104.5 -22.5q72 0 105.5 22.5t33.5 85.5v199q0 61 -33.5 84.5t-105.5 23.5q-63 0 -101 -19.5t-38 -88.5v-199z" />
<glyph unicode="&#xa8;" horiz-adv-x="618" d="M92 1036v209h180v-209h-180zM350 1036v209h180v-209h-180z" />
<glyph unicode="&#xa9;" horiz-adv-x="778" d="M47 459v420q0 61 19.5 114.5t62.5 93t108.5 63.5t157.5 24q158 0 249 -79t91 -216v-420q0 -133 -84 -215t-258 -82q-160 0 -253 77.5t-93 219.5zM133 461q0 -94 66.5 -157.5t195.5 -63.5q123 0 188.5 61t65.5 160v411q0 96 -61.5 160t-192.5 64q-127 0 -194.5 -58.5 t-67.5 -165.5v-411zM229 467v420q0 131 168 131q66 0 108 -32t42 -99v-66h-92v58q0 29 -14.5 45t-49.5 16q-27 0 -46 -10t-19 -51v-402q0 -29 15 -46t50 -17q29 0 46.5 14t17.5 49v68h92v-78q0 -57 -35 -91t-115 -38q-76 0 -122 29.5t-46 99.5z" />
<glyph unicode="&#xaa;" horiz-adv-x="417" d="M53 1108v94q0 47 21.5 75t79.5 28q43 0 82 -25v98q0 25 -8.5 37t-39.5 12q-23 0 -34 -7t-11 -42v-24h-84v28q0 57 30 85t101 28q68 0 100 -26.5t32 -86.5v-292h45v-68h-131v35q-16 -16 -41 -28.5t-60 -12.5q-82 0 -82 92zM137 1120q0 -37 39 -37q29 0 44.5 11.5 t15.5 40.5v57q0 49 -60 49q-39 0 -39 -37v-84z" />
<glyph unicode="&#xab;" horiz-adv-x="1044" d="M45 465v4l377 457h188l-377 -463l377 -463h-188zM414 465v4l377 457h188l-377 -463l377 -463h-188z" />
<glyph unicode="&#xac;" d="M14 539q0 113 39 214t111 177t175 120t230 44q125 0 227.5 -43t175 -118t112.5 -176t40 -218q0 -111 -43 -212.5t-117.5 -177t-176 -120.5t-218.5 -45q-113 0 -214 43t-177 118.5t-120 177t-44 216.5zM213 745q0 -49 18.5 -92t51 -75.5t75.5 -51t93 -18.5q49 0 92 18.5 t75.5 51t51 75.5t18.5 92t-18.5 92.5t-51 76t-75.5 51t-92 18.5t-92.5 -18.5t-76 -51t-51 -75.5t-18.5 -93zM332 657v74q0 20 39 35q-39 6 -39 33v69q0 23 19.5 37.5t82.5 14.5t83 -14.5t20 -37.5v-67q0 -16 -7.5 -23.5t-31.5 -11.5q39 -6 39 -35v-74q0 -31 -17.5 -46 t-85.5 -15q-59 0 -80.5 11t-21.5 50zM393 653q0 -14 7.5 -19t33.5 -5q27 0 34 6t7 18v70q0 12 -7 19.5t-34 7.5q-25 0 -33 -7.5t-8 -21.5v-68zM393 807q0 -27 41 -27t41 27v53q0 14 -8 21.5t-33 7.5q-41 0 -41 -29v-53z" />
<glyph unicode="&#xad;" horiz-adv-x="524" d="M37 457v153h450v-153h-450z" />
<glyph unicode="&#xae;" horiz-adv-x="778" d="M47 459v420q0 61 20.5 114.5t62.5 93t107.5 63.5t157.5 24q156 0 248 -78t92 -217v-420q0 -137 -88 -217t-254 -80q-160 0 -253 77.5t-93 219.5zM133 461q0 -94 66.5 -157.5t195.5 -63.5q123 0 188.5 61t65.5 160v411q0 96 -61.5 160t-192.5 64q-127 0 -194.5 -58.5 t-67.5 -165.5v-411zM201 367v61h55v506h-55v63h209q76 0 112.5 -25.5t36.5 -90.5v-109q0 -35 -17.5 -54.5t-58.5 -33.5q35 -6 55.5 -27.5t20.5 -56.5v-145q0 -16 7 -21.5t42 -5.5v-61h-61q-35 0 -55.5 13t-20.5 62v156q0 23 -15.5 40t-56.5 17h-51v-227h49v-61h-196z M348 717h49q74 0 74 59v103q0 23 -13.5 39t-60.5 16h-49v-217z" />
<glyph unicode="&#xaf;" horiz-adv-x="618" d="M109 1036v144h395v-144h-395z" />
<glyph unicode="&#xb0;" horiz-adv-x="512" d="M20 1274q0 49 19.5 93t51.5 76t76 51t93 19t93 -19t76 -51t51.5 -76t19.5 -93t-19.5 -93t-51.5 -76t-76 -51.5t-93 -19.5t-93 19.5t-76 51.5t-51.5 76t-19.5 93zM143 1276q0 -49 35 -84t82 -35t82 35t35 84q0 47 -35 81t-82 34t-82 -34t-35 -81z" />
<glyph unicode="&#xb1;" horiz-adv-x="1110" d="M45 0v129h86v668h-86v129h86v387q0 61 11.5 100t35 61.5t61 30.5t91.5 8q78 0 125 -11t73 -27q41 39 152 38q49 0 85 -5t62 -13h160v-1366h96v-129h-323v129h67v1221q-43 25 -102 24q-53 0 -67.5 -14t-14.5 -68v-366h139v-129h-137v-668h68v-129h-299v129h67v668h-186 v-668h67v-129h-317zM293 926h188v422q-47 27 -104 26q-53 0 -68.5 -16.5t-15.5 -63.5v-368z" />
<glyph unicode="&#xb2;" d="M14 539q0 113 39 214t111 177t175 120t230 44q125 0 227.5 -43t175 -118t112.5 -176t40 -218q0 -111 -43 -212.5t-117.5 -177t-176 -120.5t-218.5 -45q-113 0 -214 43t-177 118.5t-120 177t-44 216.5zM213 745q0 -49 18.5 -92t51 -75.5t75.5 -51t93 -18.5q49 0 92 18.5 t75.5 51t51 75.5t18.5 92t-18.5 92.5t-51 76t-75.5 51t-92 18.5t-92.5 -18.5t-76 -51t-51 -75.5t-18.5 -93zM332 657v74q0 20 39 35q-39 6 -39 33v69q0 23 19.5 37.5t82.5 14.5t83 -14.5t20 -37.5v-67q0 -16 -7.5 -23.5t-31.5 -11.5q39 -6 39 -35v-74q0 -31 -17.5 -46 t-85.5 -15q-59 0 -80.5 11t-21.5 50zM393 653q0 -14 7.5 -19t33.5 -5q27 0 34 6t7 18v70q0 12 -7 19.5t-34 7.5q-25 0 -33 -7.5t-8 -21.5v-68zM393 807q0 -27 41 -27t41 27v53q0 14 -8 21.5t-33 7.5q-41 0 -41 -29v-53z" />
<glyph unicode="&#xb3;" d="M14 539q0 113 39 214t111 177t175 120t230 44q125 0 227.5 -43t175 -118t112.5 -176t40 -218q0 -111 -43 -212.5t-117.5 -177t-176 -120.5t-218.5 -45q-113 0 -214 43t-177 118.5t-120 177t-44 216.5zM213 745q0 -49 18.5 -92t51 -75.5t75.5 -51t93 -18.5q49 0 92 18.5 t75.5 51t51 75.5t18.5 92t-18.5 92.5t-51 76t-75.5 51t-92 18.5t-92.5 -18.5t-76 -51t-51 -75.5t-18.5 -93zM332 657v74q0 20 39 35q-39 6 -39 33v69q0 23 19.5 37.5t82.5 14.5t83 -14.5t20 -37.5v-67q0 -16 -7.5 -23.5t-31.5 -11.5q39 -6 39 -35v-74q0 -31 -17.5 -46 t-85.5 -15q-59 0 -80.5 11t-21.5 50zM393 653q0 -14 7.5 -19t33.5 -5q27 0 34 6t7 18v70q0 12 -7 19.5t-34 7.5q-25 0 -33 -7.5t-8 -21.5v-68zM393 807q0 -27 41 -27t41 27v53q0 14 -8 21.5t-33 7.5q-41 0 -41 -29v-53z" />
<glyph unicode="&#xb4;" horiz-adv-x="618" d="M227 1036l123 289h170l-168 -289h-125z" />
<glyph unicode="&#xb5;" d="M14 539q0 113 39 214t111 177t175 120t230 44q125 0 227.5 -43t175 -118t112.5 -176t40 -218q0 -111 -43 -212.5t-117.5 -177t-176 -120.5t-218.5 -45q-113 0 -214 43t-177 118.5t-120 177t-44 216.5zM213 745q0 -49 18.5 -92t51 -75.5t75.5 -51t93 -18.5q49 0 92 18.5 t75.5 51t51 75.5t18.5 92t-18.5 92.5t-51 76t-75.5 51t-92 18.5t-92.5 -18.5t-76 -51t-51 -75.5t-18.5 -93zM332 657v74q0 20 39 35q-39 6 -39 33v69q0 23 19.5 37.5t82.5 14.5t83 -14.5t20 -37.5v-67q0 -16 -7.5 -23.5t-31.5 -11.5q39 -6 39 -35v-74q0 -31 -17.5 -46 t-85.5 -15q-59 0 -80.5 11t-21.5 50zM393 653q0 -14 7.5 -19t33.5 -5q27 0 34 6t7 18v70q0 12 -7 19.5t-34 7.5q-25 0 -33 -7.5t-8 -21.5v-68zM393 807q0 -27 41 -27t41 27v53q0 14 -8 21.5t-33 7.5q-41 0 -41 -29v-53z" />
<glyph unicode="&#xb6;" horiz-adv-x="845" d="M43 858v346q0 156 67.5 223.5t239.5 67.5h445v-145h-99v-1205h99v-145h-461v145h98v447h-102q-53 0 -104.5 9t-91.5 38t-65.5 81t-25.5 138zM209 860q0 -53 30.5 -88t77.5 -35h115v613h-84q-66 0 -102.5 -29t-36.5 -109v-352zM526 145h76v1205h-76v-1205z" />
<glyph unicode="&#xb7;" horiz-adv-x="284" d="M45 655v195h195v-195h-195z" />
<glyph unicode="&#xb8;" horiz-adv-x="618" d="M143 -201h99v-30q0 -33 13 -44.5t52 -11.5q47 0 60.5 9.5t13.5 31.5v37q0 29 -7 38t-28 9h-92v154h94v-66q70 0 98.5 -20.5t28.5 -89.5v-88q0 -51 -39 -75t-129 -24q-76 0 -120 24.5t-44 74.5v71z" />
<glyph unicode="&#xb9;" d="M14 539q0 113 39 214t111 177t175 120t230 44q125 0 227.5 -43t175 -118t112.5 -176t40 -218q0 -111 -43 -212.5t-117.5 -177t-176 -120.5t-218.5 -45q-113 0 -214 43t-177 118.5t-120 177t-44 216.5zM213 745q0 -49 18.5 -92t51 -75.5t75.5 -51t93 -18.5q49 0 92 18.5 t75.5 51t51 75.5t18.5 92t-18.5 92.5t-51 76t-75.5 51t-92 18.5t-92.5 -18.5t-76 -51t-51 -75.5t-18.5 -93zM332 657v74q0 20 39 35q-39 6 -39 33v69q0 23 19.5 37.5t82.5 14.5t83 -14.5t20 -37.5v-67q0 -16 -7.5 -23.5t-31.5 -11.5q39 -6 39 -35v-74q0 -31 -17.5 -46 t-85.5 -15q-59 0 -80.5 11t-21.5 50zM393 653q0 -14 7.5 -19t33.5 -5q27 0 34 6t7 18v70q0 12 -7 19.5t-34 7.5q-25 0 -33 -7.5t-8 -21.5v-68zM393 807q0 -27 41 -27t41 27v53q0 14 -8 21.5t-33 7.5q-41 0 -41 -29v-53z" />
<glyph unicode="&#xba;" horiz-adv-x="395" d="M63 1130v250q0 55 30 85t104 30q72 0 103.5 -27.5t31.5 -87.5v-250q0 -51 -30 -82.5t-105 -31.5q-133 0 -134 114zM150 1128q0 -18 7 -30.5t40 -12.5q29 0 39 10.5t10 32.5v256q0 18 -10.5 30.5t-38.5 12.5q-47 0 -47 -43v-256z" />
<glyph unicode="&#xbb;" horiz-adv-x="1046" d="M31 0l377 463l-377 463h188l377 -461v-4l-377 -461h-188zM399 0l377 463l-377 463h189l377 -461v-4l-377 -461h-189z" />
<glyph unicode="&#xbc;" d="M14 539q0 113 39 214t111 177t175 120t230 44q125 0 227.5 -43t175 -118t112.5 -176t40 -218q0 -111 -43 -212.5t-117.5 -177t-176 -120.5t-218.5 -45q-113 0 -214 43t-177 118.5t-120 177t-44 216.5zM213 745q0 -49 18.5 -92t51 -75.5t75.5 -51t93 -18.5q49 0 92 18.5 t75.5 51t51 75.5t18.5 92t-18.5 92.5t-51 76t-75.5 51t-92 18.5t-92.5 -18.5t-76 -51t-51 -75.5t-18.5 -93zM332 657v74q0 20 39 35q-39 6 -39 33v69q0 23 19.5 37.5t82.5 14.5t83 -14.5t20 -37.5v-67q0 -16 -7.5 -23.5t-31.5 -11.5q39 -6 39 -35v-74q0 -31 -17.5 -46 t-85.5 -15q-59 0 -80.5 11t-21.5 50zM393 653q0 -14 7.5 -19t33.5 -5q27 0 34 6t7 18v70q0 12 -7 19.5t-34 7.5q-25 0 -33 -7.5t-8 -21.5v-68zM393 807q0 -27 41 -27t41 27v53q0 14 -8 21.5t-33 7.5q-41 0 -41 -29v-53z" />
<glyph unicode="&#xbd;" d="M14 539q0 113 39 214t111 177t175 120t230 44q125 0 227.5 -43t175 -118t112.5 -176t40 -218q0 -111 -43 -212.5t-117.5 -177t-176 -120.5t-218.5 -45q-113 0 -214 43t-177 118.5t-120 177t-44 216.5zM213 745q0 -49 18.5 -92t51 -75.5t75.5 -51t93 -18.5q49 0 92 18.5 t75.5 51t51 75.5t18.5 92t-18.5 92.5t-51 76t-75.5 51t-92 18.5t-92.5 -18.5t-76 -51t-51 -75.5t-18.5 -93zM332 657v74q0 20 39 35q-39 6 -39 33v69q0 23 19.5 37.5t82.5 14.5t83 -14.5t20 -37.5v-67q0 -16 -7.5 -23.5t-31.5 -11.5q39 -6 39 -35v-74q0 -31 -17.5 -46 t-85.5 -15q-59 0 -80.5 11t-21.5 50zM393 653q0 -14 7.5 -19t33.5 -5q27 0 34 6t7 18v70q0 12 -7 19.5t-34 7.5q-25 0 -33 -7.5t-8 -21.5v-68zM393 807q0 -27 41 -27t41 27v53q0 14 -8 21.5t-33 7.5q-41 0 -41 -29v-53z" />
<glyph unicode="&#xbe;" d="M14 539q0 113 39 214t111 177t175 120t230 44q125 0 227.5 -43t175 -118t112.5 -176t40 -218q0 -111 -43 -212.5t-117.5 -177t-176 -120.5t-218.5 -45q-113 0 -214 43t-177 118.5t-120 177t-44 216.5zM213 745q0 -49 18.5 -92t51 -75.5t75.5 -51t93 -18.5q49 0 92 18.5 t75.5 51t51 75.5t18.5 92t-18.5 92.5t-51 76t-75.5 51t-92 18.5t-92.5 -18.5t-76 -51t-51 -75.5t-18.5 -93zM332 657v74q0 20 39 35q-39 6 -39 33v69q0 23 19.5 37.5t82.5 14.5t83 -14.5t20 -37.5v-67q0 -16 -7.5 -23.5t-31.5 -11.5q39 -6 39 -35v-74q0 -31 -17.5 -46 t-85.5 -15q-59 0 -80.5 11t-21.5 50zM393 653q0 -14 7.5 -19t33.5 -5q27 0 34 6t7 18v70q0 12 -7 19.5t-34 7.5q-25 0 -33 -7.5t-8 -21.5v-68zM393 807q0 -27 41 -27t41 27v53q0 14 -8 21.5t-33 7.5q-41 0 -41 -29v-53z" />
<glyph unicode="&#xbf;" horiz-adv-x="638" d="M43 -6v391q0 37 10 75t29.5 67.5t49.5 48t71 18.5h61l8 262h144l12 -414q-33 2 -59 4q-23 2 -45.5 3.5t-30.5 1.5q-47 0 -67.5 -33t-20.5 -90v-328q0 -68 26.5 -95.5t87.5 -27.5q55 0 83 22.5t28 100.5v215h172v-223q0 -76 -21.5 -126t-58.5 -80t-89 -42t-114 -12 q-61 0 -112 12t-88 43t-56.5 81t-19.5 126zM246 1051v194h194v-194h-194z" />
<glyph unicode="&#xc0;" horiz-adv-x="935" d="M20 0v145h91l231 1205h-109v145h340l263 -1350h90v-145h-381v145h104l-49 283h-270l-49 -283h116v-145h-377zM213 1851h170l123 -289h-125zM354 573h221l-116 617z" />
<glyph unicode="&#xc1;" horiz-adv-x="935" d="M20 0v145h91l231 1205h-109v145h340l263 -1350h90v-145h-381v145h104l-49 283h-270l-49 -283h116v-145h-377zM354 573h221l-116 617zM403 1562l123 289h170l-168 -289h-125z" />
<glyph unicode="&#xc2;" horiz-adv-x="935" d="M20 0v145h91l231 1205h-109v145h340l263 -1350h90v-145h-381v145h104l-49 283h-270l-49 -283h116v-145h-377zM230 1562l121 289h172l120 -289h-116l-90 183l-91 -183h-116zM354 573h221l-116 617z" />
<glyph unicode="&#xc3;" horiz-adv-x="935" d="M20 0v145h91l231 1205h-109v145h340l263 -1350h90v-145h-381v145h104l-49 283h-270l-49 -283h116v-145h-377zM197 1571q0 18 2 51t13 65t36.5 55.5t75.5 23.5q29 0 55 -11.5t53 -25.5q29 -14 53.5 -26.5t44.5 -12.5q31 0 46.5 13.5t15.5 54.5h92q0 -115 -34 -155 t-105 -40q-31 0 -63 14.5t-60 30.5q-23 12 -44.5 21.5t-37.5 9.5q-33 0 -43 -23.5t-14 -44.5h-86zM354 573h221l-116 617z" />
<glyph unicode="&#xc4;" horiz-adv-x="935" d="M20 0v145h91l231 1205h-109v145h340l263 -1350h90v-145h-381v145h104l-49 283h-270l-49 -283h116v-145h-377zM235 1562v209h180v-209h-180zM354 573h221l-116 617zM493 1562v209h180v-209h-180z" />
<glyph unicode="&#xc5;" horiz-adv-x="935" d="M20 0v145h91l231 1205h-109v145h340l263 -1350h90v-145h-381v145h104l-49 283h-270l-49 -283h116v-145h-377zM283 1735q0 70 49 122t125 52q70 0 122 -49t52 -125q0 -70 -48 -121t-126 -51q-70 0 -122 48t-52 124zM354 573h221l-116 617zM379 1735q0 -33 22 -56 q23 -23 56 -22q31 0 55 23q25 24 25 55q0 29 -23 54q-23 26 -57 26q-29 0 -54 -22t-24 -58z" />
<glyph unicode="&#xc6;" horiz-adv-x="1372" d="M20 0v145h99l381 1205h-170v145h954v-403h-186v258h-248v-500h289v-145h-289v-560h250v265h192v-410h-747v145h121v295h-275l-86 -295h92v-145h-377zM432 573h225v719z" />
<glyph unicode="&#xc7;" horiz-adv-x="800" d="M82 264v967q0 135 74.5 208.5t244.5 73.5q166 0 243 -73.5t77 -208.5v-166h-186v174q0 68 -28 98.5t-106 30.5q-72 0 -102.5 -25.5t-30.5 -103.5v-983q0 -70 29 -99.5t104 -29.5q72 0 103 27.5t31 101.5v154h186v-146q0 -123 -62.5 -196.5t-207.5 -83.5v-58 q70 0 98.5 -20.5t28.5 -89.5v-88q0 -51 -39 -75t-129 -24q-76 0 -120 24.5t-44 74.5v71h98v-30q0 -33 13.5 -44.5t52.5 -11.5q47 0 60 9.5t13 31.5v37q0 29 -7 38t-27 9h-93v146q-141 10 -207.5 79.5t-66.5 200.5z" />
<glyph unicode="&#xc8;" horiz-adv-x="837" d="M39 0v145h111v1205h-111v145h731v-403h-186v258h-248v-500h289v-145h-289v-560h250v265h186v-410h-733zM186 1851h170l123 -289h-125z" />
<glyph unicode="&#xc9;" horiz-adv-x="837" d="M39 0v145h111v1205h-111v145h731v-403h-186v258h-248v-500h289v-145h-289v-560h250v265h186v-410h-733zM329 1562l123 289h170l-168 -289h-125z" />
<glyph unicode="&#xca;" horiz-adv-x="837" d="M39 0v145h111v1205h-111v145h731v-403h-186v258h-248v-500h289v-145h-289v-560h250v265h186v-410h-733zM215 1562l121 289h172l120 -289h-116l-90 183l-91 -183h-116z" />
<glyph unicode="&#xcb;" horiz-adv-x="837" d="M39 0v145h111v1205h-111v145h731v-403h-186v258h-248v-500h289v-145h-289v-560h250v265h186v-410h-733zM190 1562v209h180v-209h-180zM448 1562v209h180v-209h-180z" />
<glyph unicode="&#xcc;" horiz-adv-x="505" d="M43 0v145h111v1205h-111v145h408v-145h-111v-1205h111v-145h-408zM45 1851h170l123 -289h-125z" />
<glyph unicode="&#xcd;" horiz-adv-x="505" d="M43 0v145h111v1205h-111v145h408v-145h-111v-1205h111v-145h-408zM151 1562l123 289h170l-168 -289h-125z" />
<glyph unicode="&#xce;" horiz-adv-x="505" d="M37 1562l121 289h172l120 -289h-116l-90 183l-91 -183h-116zM43 0v145h111v1205h-111v145h408v-145h-111v-1205h111v-145h-408z" />
<glyph unicode="&#xcf;" horiz-adv-x="505" d="M29 1562v209h180v-209h-180zM43 0v145h111v1205h-111v145h408v-145h-111v-1205h111v-145h-408zM287 1562v209h180v-209h-180z" />
<glyph unicode="&#xd0;" horiz-adv-x="854" d="M39 0v145h111v547h-84v146h84v512h-111v145h450q160 0 233 -64.5t73 -211.5v-943q0 -137 -70 -206.5t-236 -69.5h-450zM336 145h131q80 0 110.5 36t30.5 104v925q0 63 -29.5 101.5t-111.5 38.5h-131v-512h92v-146h-92v-547z" />
<glyph unicode="&#xd1;" horiz-adv-x="950" d="M39 0v145h111v1205h-111v145h283l323 -960v815h-100v145h377v-145h-111v-1350h-156l-340 1006v-861h101v-145h-377zM228 1571q0 18 2 51t13 65t36.5 55.5t75.5 23.5q29 0 55 -11.5t53 -25.5q29 -14 53.5 -26.5t44.5 -12.5q31 0 46.5 13.5t15.5 54.5h92q0 -115 -34 -155 t-105 -40q-31 0 -63 14.5t-60 30.5q-23 12 -44.5 21.5t-37.5 9.5q-33 0 -43 -23.5t-14 -44.5h-86z" />
<glyph unicode="&#xd2;" horiz-adv-x="835" d="M82 279v938q0 156 79 226t257 70q170 0 253 -67.5t83 -228.5v-938q0 -158 -79 -227.5t-257 -69.5q-172 0 -254 66.5t-82 230.5zM196 1851h170l123 -289h-125zM268 270q0 -78 34 -110.5t116 -32.5q78 0 113.5 30.5t35.5 112.5v955q0 78 -32.5 110.5t-116.5 32.5 q-74 0 -112 -27.5t-38 -115.5v-955z" />
<glyph unicode="&#xd3;" horiz-adv-x="835" d="M82 279v938q0 156 79 226t257 70q170 0 253 -67.5t83 -228.5v-938q0 -158 -79 -227.5t-257 -69.5q-172 0 -254 66.5t-82 230.5zM268 270q0 -78 34 -110.5t116 -32.5q78 0 113.5 30.5t35.5 112.5v955q0 78 -32.5 110.5t-116.5 32.5q-74 0 -112 -27.5t-38 -115.5v-955z M331 1562l123 289h170l-168 -289h-125z" />
<glyph unicode="&#xd4;" horiz-adv-x="835" d="M82 279v938q0 156 79 226t257 70q170 0 253 -67.5t83 -228.5v-938q0 -158 -79 -227.5t-257 -69.5q-172 0 -254 66.5t-82 230.5zM209 1562l121 289h172l120 -289h-116l-90 183l-91 -183h-116zM268 270q0 -78 34 -110.5t116 -32.5q78 0 113.5 30.5t35.5 112.5v955 q0 78 -32.5 110.5t-116.5 32.5q-74 0 -112 -27.5t-38 -115.5v-955z" />
<glyph unicode="&#xd5;" horiz-adv-x="835" d="M82 279v938q0 156 79 226t257 70q170 0 253 -67.5t83 -228.5v-938q0 -158 -79 -227.5t-257 -69.5q-172 0 -254 66.5t-82 230.5zM170 1571q0 18 2 51t13 65t36.5 55.5t75.5 23.5q29 0 55 -11.5t53 -25.5q29 -14 53.5 -26.5t44.5 -12.5q31 0 46.5 13.5t15.5 54.5h92 q0 -115 -34 -155t-105 -40q-31 0 -63 14.5t-60 30.5q-23 12 -44.5 21.5t-37.5 9.5q-33 0 -43 -23.5t-14 -44.5h-86zM268 270q0 -78 34 -110.5t116 -32.5q78 0 113.5 30.5t35.5 112.5v955q0 78 -32.5 110.5t-116.5 32.5q-74 0 -112 -27.5t-38 -115.5v-955z" />
<glyph unicode="&#xd6;" horiz-adv-x="835" d="M82 279v938q0 156 79 226t257 70q170 0 253 -67.5t83 -228.5v-938q0 -158 -79 -227.5t-257 -69.5q-172 0 -254 66.5t-82 230.5zM192 1562v209h180v-209h-180zM268 270q0 -78 34 -110.5t116 -32.5q78 0 113.5 30.5t35.5 112.5v955q0 78 -32.5 110.5t-116.5 32.5 q-74 0 -112 -27.5t-38 -115.5v-955zM450 1562v209h180v-209h-180z" />
<glyph unicode="&#xd7;" d="M14 539q0 113 39 214t111 177t175 120t230 44q125 0 227.5 -43t175 -118t112.5 -176t40 -218q0 -111 -43 -212.5t-117.5 -177t-176 -120.5t-218.5 -45q-113 0 -214 43t-177 118.5t-120 177t-44 216.5zM213 745q0 -49 18.5 -92t51 -75.5t75.5 -51t93 -18.5q49 0 92 18.5 t75.5 51t51 75.5t18.5 92t-18.5 92.5t-51 76t-75.5 51t-92 18.5t-92.5 -18.5t-76 -51t-51 -75.5t-18.5 -93zM332 657v74q0 20 39 35q-39 6 -39 33v69q0 23 19.5 37.5t82.5 14.5t83 -14.5t20 -37.5v-67q0 -16 -7.5 -23.5t-31.5 -11.5q39 -6 39 -35v-74q0 -31 -17.5 -46 t-85.5 -15q-59 0 -80.5 11t-21.5 50zM393 653q0 -14 7.5 -19t33.5 -5q27 0 34 6t7 18v70q0 12 -7 19.5t-34 7.5q-25 0 -33 -7.5t-8 -21.5v-68zM393 807q0 -27 41 -27t41 27v53q0 14 -8 21.5t-33 7.5q-41 0 -41 -29v-53z" />
<glyph unicode="&#xd8;" horiz-adv-x="835" d="M82 -121l59 193q-59 68 -59 207v938q0 156 79 226t257 70q47 0 87 -5t73 -15l32 104h140q-8 -25 -17 -51q-8 -25 -18 -56.5t-21 -68.5q59 -68 60 -204v-938q0 -158 -79 -227.5t-257 -69.5q-100 0 -164 20l-37 -123h-135zM268 485l262 852q-35 31 -112 31 q-74 0 -112 -27.5t-38 -115.5v-740zM303 158q37 -31 115 -31t113.5 30.5t35.5 112.5v738z" />
<glyph unicode="&#xd9;" horiz-adv-x="921" d="M29 1350v145h395v-145h-98v-1094q0 -66 30.5 -97.5t108.5 -31.5q72 0 105.5 29.5t33.5 99.5v1094h-98v145h387v-145h-111v-1082q0 -145 -77.5 -215.5t-243.5 -70.5q-158 0 -240 66.5t-82 219.5v1082h-110zM229 1851h170l123 -289h-125z" />
<glyph unicode="&#xda;" horiz-adv-x="921" d="M29 1350v145h395v-145h-98v-1094q0 -66 30.5 -97.5t108.5 -31.5q72 0 105.5 29.5t33.5 99.5v1094h-98v145h387v-145h-111v-1082q0 -145 -77.5 -215.5t-243.5 -70.5q-158 0 -240 66.5t-82 219.5v1082h-110zM411 1562l123 289h170l-168 -289h-125z" />
<glyph unicode="&#xdb;" horiz-adv-x="921" d="M29 1350v145h395v-145h-98v-1094q0 -66 30.5 -97.5t108.5 -31.5q72 0 105.5 29.5t33.5 99.5v1094h-98v145h387v-145h-111v-1082q0 -145 -77.5 -215.5t-243.5 -70.5q-158 0 -240 66.5t-82 219.5v1082h-110zM250 1562l121 289h172l120 -289h-116l-90 183l-91 -183h-116z " />
<glyph unicode="&#xdc;" horiz-adv-x="921" d="M29 1350v145h395v-145h-98v-1094q0 -66 30.5 -97.5t108.5 -31.5q72 0 105.5 29.5t33.5 99.5v1094h-98v145h387v-145h-111v-1082q0 -145 -77.5 -215.5t-243.5 -70.5q-158 0 -240 66.5t-82 219.5v1082h-110zM246 1562v209h180v-209h-180zM504 1562v209h180v-209h-180z" />
<glyph unicode="&#xdd;" horiz-adv-x="944" d="M33 1350v145h387v-145h-105l158 -539l166 539h-123v145h395v-145h-102l-244 -707v-498h101v-145h-400v145h101v498l-234 707h-100zM415 1562l123 289h170l-168 -289h-125z" />
<glyph unicode="&#xde;" horiz-adv-x="854" d="M43 0v145h111v1205h-111v143h412v-143h-119v-150h143q80 0 138.5 -13t95.5 -47t55 -90.5t18 -140.5v-352q0 -143 -74.5 -201.5t-209.5 -58.5h-166v-152h119v-145h-412zM336 442h156q47 0 80.5 33t33.5 100v343q0 74 -35.5 105.5t-109.5 31.5h-125v-613z" />
<glyph unicode="&#xdf;" horiz-adv-x="739" d="M45 0v129h86v668h-86v129h86v415q0 31 12.5 63t41 56.5t75.5 40t117 15.5q137 0 192.5 -51.5t55.5 -123.5v-288q0 -43 -2 -73t-13.5 -51.5t-35 -35.5t-64.5 -25q78 -12 122 -62t44 -138v-392q0 -137 -68.5 -206.5t-236.5 -69.5v143q80 0 110.5 37t30.5 105v372 q0 61 -37 100.5t-115 39.5v129q33 0 53.5 5t31 20.5t13.5 43t3 70.5v248q0 31 -18.5 47t-65.5 16q-82 0 -82 -63v-1313h-250z" />
<glyph unicode="&#xe0;" horiz-adv-x="677" d="M61 172v182q0 104 44.5 157.5t148.5 53.5q96 0 158 -49v197q0 43 -18.5 67.5t-71.5 24.5q-39 0 -64 -16.5t-25 -75.5v-56h-159v64q0 111 59.5 165t192.5 54q129 0 188 -50t59 -169v-592h86v-129h-247v63q-72 -78 -193 -77q-70 0 -114 38.5t-44 147.5zM100 1325h170 l123 -289h-125zM223 197q0 -41 16.5 -57.5t57.5 -16.5q53 0 84 22.5t31 79.5v115q0 49 -32 70.5t-83 21.5q-31 0 -52.5 -13t-21.5 -61v-161z" />
<glyph unicode="&#xe1;" horiz-adv-x="677" d="M61 172v182q0 104 44.5 157.5t148.5 53.5q96 0 158 -49v197q0 43 -18.5 67.5t-71.5 24.5q-39 0 -64 -16.5t-25 -75.5v-56h-159v64q0 111 59.5 165t192.5 54q129 0 188 -50t59 -169v-592h86v-129h-247v63q-72 -78 -193 -77q-70 0 -114 38.5t-44 147.5zM223 197 q0 -41 16.5 -57.5t57.5 -16.5q53 0 84 22.5t31 79.5v115q0 49 -32 70.5t-83 21.5q-31 0 -52.5 -13t-21.5 -61v-161zM264 1036l123 289h170l-168 -289h-125z" />
<glyph unicode="&#xe2;" horiz-adv-x="677" d="M61 172v182q0 104 44.5 157.5t148.5 53.5q96 0 158 -49v197q0 43 -18.5 67.5t-71.5 24.5q-39 0 -64 -16.5t-25 -75.5v-56h-159v64q0 111 59.5 165t192.5 54q129 0 188 -50t59 -169v-592h86v-129h-247v63q-72 -78 -193 -77q-70 0 -114 38.5t-44 147.5zM131 1036l121 289 h172l120 -289h-116l-90 183l-91 -183h-116zM223 197q0 -41 16.5 -57.5t57.5 -16.5q53 0 84 22.5t31 79.5v115q0 49 -32 70.5t-83 21.5q-31 0 -52.5 -13t-21.5 -61v-161z" />
<glyph unicode="&#xe3;" horiz-adv-x="677" d="M61 172v182q0 104 44.5 157.5t148.5 53.5q96 0 158 -49v197q0 43 -18.5 67.5t-71.5 24.5q-39 0 -64 -16.5t-25 -75.5v-56h-159v64q0 111 59.5 165t192.5 54q129 0 188 -50t59 -169v-592h86v-129h-247v63q-72 -78 -193 -77q-70 0 -114 38.5t-44 147.5zM97 1036q0 18 2 51 t13 65t36.5 55.5t75.5 23.5q29 0 55 -11.5t53 -25.5q29 -14 53.5 -26.5t44.5 -12.5q31 0 46.5 13.5t15.5 54.5h92q0 -115 -34 -155t-105 -40q-31 0 -63 14.5t-60 30.5q-23 12 -44.5 21.5t-37.5 9.5q-33 0 -43 -23.5t-14 -44.5h-86zM223 197q0 -41 16.5 -57.5t57.5 -16.5 q53 0 84 22.5t31 79.5v115q0 49 -32 70.5t-83 21.5q-31 0 -52.5 -13t-21.5 -61v-161z" />
<glyph unicode="&#xe4;" horiz-adv-x="677" d="M61 172v182q0 104 44.5 157.5t148.5 53.5q96 0 158 -49v197q0 43 -18.5 67.5t-71.5 24.5q-39 0 -64 -16.5t-25 -75.5v-56h-159v64q0 111 59.5 165t192.5 54q129 0 188 -50t59 -169v-592h86v-129h-247v63q-72 -78 -193 -77q-70 0 -114 38.5t-44 147.5zM112 1036v209h180 v-209h-180zM223 197q0 -41 16.5 -57.5t57.5 -16.5q53 0 84 22.5t31 79.5v115q0 49 -32 70.5t-83 21.5q-31 0 -52.5 -13t-21.5 -61v-161zM370 1036v209h180v-209h-180z" />
<glyph unicode="&#xe5;" horiz-adv-x="677" d="M61 172v182q0 104 44.5 157.5t148.5 53.5q96 0 158 -49v197q0 43 -18.5 67.5t-71.5 24.5q-39 0 -64 -16.5t-25 -75.5v-56h-159v64q0 111 59.5 165t192.5 54q129 0 188 -50t59 -169v-592h86v-129h-247v63q-72 -78 -193 -77q-70 0 -114 38.5t-44 147.5zM150 1208 q0 70 49 122t125 52q70 0 121 -49q53 -49 53 -125q0 -70 -48 -121t-126 -51q-70 0 -122 48t-52 124zM223 197q0 -41 16.5 -57.5t57.5 -16.5q53 0 84 22.5t31 79.5v115q0 49 -32 70.5t-83 21.5q-31 0 -52.5 -13t-21.5 -61v-161zM246 1208q0 -33 22 -55q23 -23 56 -23 q31 0 55 24q24 23 24 54q0 29 -22 55q-23 26 -57 25q-29 0 -54 -21q-25 -22 -24 -59z" />
<glyph unicode="&#xe6;" horiz-adv-x="997" d="M61 172v182q0 104 45.5 157.5t147.5 53.5q49 0 92 -14t66 -35v197q0 43 -17.5 67.5t-72.5 24.5q-39 0 -64 -17.5t-25 -74.5v-56h-159v64q0 111 60.5 165t191.5 54q61 0 109 -18.5t67 -44.5q23 20 66.5 41.5t107.5 21.5q141 0 202.5 -57.5t61.5 -169.5v-289h-365v-209 q0 -43 19.5 -68.5t81.5 -25.5q53 0 76.5 22.5t23.5 71.5v96h164v-98q0 -106 -60.5 -166.5t-203.5 -60.5q-76 0 -132.5 21.5t-101.5 78.5q-41 -49 -102 -74.5t-121 -25.5q-33 0 -61.5 8t-50 28.5t-34 57.5t-12.5 92zM223 197q0 -41 16.5 -57.5t57.5 -16.5q47 0 81 18.5 t34 83.5v115q0 49 -30 70.5t-85 21.5q-31 0 -52.5 -15.5t-21.5 -58.5v-161zM575 553h201v158q0 43 -19.5 68.5t-80.5 25.5q-51 0 -76 -21.5t-25 -72.5v-158z" />
<glyph unicode="&#xe7;" horiz-adv-x="641" d="M63 197v532q0 88 59.5 149.5t201.5 61.5q135 0 197.5 -59.5t62.5 -151.5v-102h-164v86q0 39 -18.5 65.5t-77.5 26.5q-55 0 -76 -22.5t-21 -69.5v-500q0 -18 3 -34.5t13.5 -30t29 -20.5t51.5 -7q57 0 76.5 23.5t19.5 68.5v98h164v-114q0 -39 -11.5 -75t-37 -64.5 t-67.5 -47t-103 -22.5v-62q70 0 98.5 -20.5t28.5 -89.5v-88q0 -51 -39 -75t-129 -24q-76 0 -120 24.5t-44 74.5v71h98v-30q0 -33 13.5 -44.5t52.5 -11.5q47 0 60 9.5t13 31.5v37q0 29 -7 38t-28 9h-92v150q-115 12 -161 70.5t-46 138.5z" />
<glyph unicode="&#xe8;" horiz-adv-x="645" d="M63 213v500q0 106 60.5 166.5t204.5 60.5q141 0 202.5 -57.5t61.5 -169.5v-289h-365v-209q0 -43 18.5 -68.5t82.5 -25.5q53 0 76.5 23.5t23.5 70.5v96h164v-98q0 -109 -60.5 -168t-203.5 -59q-141 0 -203 58t-62 169zM90 1325h170l123 -289h-125zM227 553h201v158 q0 43 -20.5 68.5t-79.5 25.5q-51 0 -76 -20.5t-25 -73.5v-158z" />
<glyph unicode="&#xe9;" horiz-adv-x="645" d="M63 213v500q0 106 60.5 166.5t204.5 60.5q141 0 202.5 -57.5t61.5 -169.5v-289h-365v-209q0 -43 18.5 -68.5t82.5 -25.5q53 0 76.5 23.5t23.5 70.5v96h164v-98q0 -109 -60.5 -168t-203.5 -59q-141 0 -203 58t-62 169zM227 553h201v158q0 43 -20.5 68.5t-79.5 25.5 q-51 0 -76 -20.5t-25 -73.5v-158zM258 1036l123 289h170l-168 -289h-125z" />
<glyph unicode="&#xea;" horiz-adv-x="645" d="M63 213v500q0 106 60.5 166.5t204.5 60.5q141 0 202.5 -57.5t61.5 -169.5v-289h-365v-209q0 -43 18.5 -68.5t82.5 -25.5q53 0 76.5 23.5t23.5 70.5v96h164v-98q0 -109 -60.5 -168t-203.5 -59q-141 0 -203 58t-62 169zM123 1036l121 289h172l120 -289h-116l-90 183 l-91 -183h-116zM227 553h201v158q0 43 -20.5 68.5t-79.5 25.5q-51 0 -76 -20.5t-25 -73.5v-158z" />
<glyph unicode="&#xeb;" horiz-adv-x="645" d="M63 213v500q0 106 60.5 166.5t204.5 60.5q141 0 202.5 -57.5t61.5 -169.5v-289h-365v-209q0 -43 18.5 -68.5t82.5 -25.5q53 0 76.5 23.5t23.5 70.5v96h164v-98q0 -109 -60.5 -168t-203.5 -59q-141 0 -203 58t-62 169zM108 1036v209h180v-209h-180zM227 553h201v158 q0 43 -20.5 68.5t-79.5 25.5q-51 0 -76 -20.5t-25 -73.5v-158zM366 1036v209h180v-209h-180z" />
<glyph unicode="&#xec;" horiz-adv-x="405" d="M-25 1325h170l123 -289h-125zM31 0v123h94v680h-94v123h254v-803h94v-123h-348z" />
<glyph unicode="&#xed;" horiz-adv-x="405" d="M31 0v123h94v680h-94v123h254v-803h94v-123h-348zM86 1036l123 289h170l-168 -289h-125z" />
<glyph unicode="&#xee;" horiz-adv-x="405" d="M-10 1036l121 289h172l120 -289h-116l-90 183l-91 -183h-116zM31 0v123h94v680h-94v123h254v-803h94v-123h-348z" />
<glyph unicode="&#xef;" horiz-adv-x="405" d="M-35 1036v209h180v-209h-180zM31 0v123h94v680h-94v123h254v-803h94v-123h-348zM223 1036v209h180v-209h-180z" />
<glyph unicode="&#xf0;" horiz-adv-x="686" d="M59 281v383q0 111 48.5 168t148.5 57q63 0 115.5 -15.5t87.5 -54.5v219l-121 -71l-64 125l187 110v12q0 51 -19.5 80t-60.5 29h-25q-8 0 -12 2v170h18q106 0 171 -45t85 -150v-2l109 66l61 -129l-161 -96v-858q0 -86 -13.5 -143.5t-46 -91.5t-87 -48t-136.5 -14t-136 14 t-87 49t-47.5 92.5t-14.5 141.5zM227 281q0 -49 3 -78t14.5 -43.5t32 -18.5t57.5 -4q70 0 96.5 28t26.5 116v352q0 53 -37 84t-96 31q-53 0 -75 -21.5t-22 -69.5v-376z" />
<glyph unicode="&#xf1;" horiz-adv-x="755" d="M41 0v129h86v668h-86v129h250v-64q72 78 194 78q166 0 166 -184v-627h86v-129h-319v129h69v600q0 31 -16 50.5t-61 19.5q-119 0 -119 -115v-555h69v-129h-319zM144 1036q0 18 2 51t13 65t36.5 55.5t75.5 23.5q29 0 55 -11.5t53 -25.5q29 -14 53.5 -26.5t44.5 -12.5 q31 0 46.5 13.5t15.5 54.5h92q0 -115 -34 -155t-105 -40q-31 0 -63 14.5t-60 30.5q-23 12 -44.5 21.5t-37.5 9.5q-33 0 -43 -23.5t-14 -44.5h-86z" />
<glyph unicode="&#xf2;" horiz-adv-x="663" d="M63 213v500q0 106 60.5 166.5t208.5 60.5q141 0 204.5 -56.5t63.5 -170.5v-500q0 -106 -59.5 -166.5t-208.5 -60.5q-141 0 -205 56t-64 171zM100 1325h170l123 -289h-125zM227 215q0 -47 19.5 -70.5t85.5 -23.5t85 23.5t19 70.5v496q0 41 -19.5 67.5t-84.5 26.5 q-55 0 -80 -21.5t-25 -72.5v-496z" />
<glyph unicode="&#xf3;" horiz-adv-x="663" d="M63 213v500q0 106 60.5 166.5t208.5 60.5q141 0 204.5 -56.5t63.5 -170.5v-500q0 -106 -59.5 -166.5t-208.5 -60.5q-141 0 -205 56t-64 171zM227 215q0 -47 19.5 -70.5t85.5 -23.5t85 23.5t19 70.5v496q0 41 -19.5 67.5t-84.5 26.5q-55 0 -80 -21.5t-25 -72.5v-496z M227 1036l123 289h170l-168 -289h-125z" />
<glyph unicode="&#xf4;" horiz-adv-x="663" d="M63 213v500q0 106 60.5 166.5t208.5 60.5q141 0 204.5 -56.5t63.5 -170.5v-500q0 -106 -59.5 -166.5t-208.5 -60.5q-141 0 -205 56t-64 171zM119 1036l121 289h172l120 -289h-116l-90 183l-91 -183h-116zM227 215q0 -47 19.5 -70.5t85.5 -23.5t85 23.5t19 70.5v496 q0 41 -19.5 67.5t-84.5 26.5q-55 0 -80 -21.5t-25 -72.5v-496z" />
<glyph unicode="&#xf5;" horiz-adv-x="663" d="M63 213v500q0 106 60.5 166.5t208.5 60.5q141 0 204.5 -56.5t63.5 -170.5v-500q0 -106 -59.5 -166.5t-208.5 -60.5q-141 0 -205 56t-64 171zM93 1036q0 18 2 51t13 65t36.5 55.5t75.5 23.5q29 0 55 -11.5t53 -25.5q29 -14 53.5 -26.5t44.5 -12.5q31 0 46.5 13.5 t15.5 54.5h92q0 -115 -34 -155t-105 -40q-31 0 -63 14.5t-60 30.5q-23 12 -44.5 21.5t-37.5 9.5q-33 0 -43 -23.5t-14 -44.5h-86zM227 215q0 -47 19.5 -70.5t85.5 -23.5t85 23.5t19 70.5v496q0 41 -19.5 67.5t-84.5 26.5q-55 0 -80 -21.5t-25 -72.5v-496z" />
<glyph unicode="&#xf6;" horiz-adv-x="663" d="M63 213v500q0 106 60.5 166.5t208.5 60.5q141 0 204.5 -56.5t63.5 -170.5v-500q0 -106 -59.5 -166.5t-208.5 -60.5q-141 0 -205 56t-64 171zM110 1036v209h180v-209h-180zM227 215q0 -47 19.5 -70.5t85.5 -23.5t85 23.5t19 70.5v496q0 41 -19.5 67.5t-84.5 26.5 q-55 0 -80 -21.5t-25 -72.5v-496zM368 1036v209h180v-209h-180z" />
<glyph unicode="&#xf7;" d="M14 539q0 113 39 214t111 177t175 120t230 44q125 0 227.5 -43t175 -118t112.5 -176t40 -218q0 -111 -43 -212.5t-117.5 -177t-176 -120.5t-218.5 -45q-113 0 -214 43t-177 118.5t-120 177t-44 216.5zM213 745q0 -49 18.5 -92t51 -75.5t75.5 -51t93 -18.5q49 0 92 18.5 t75.5 51t51 75.5t18.5 92t-18.5 92.5t-51 76t-75.5 51t-92 18.5t-92.5 -18.5t-76 -51t-51 -75.5t-18.5 -93zM332 657v74q0 20 39 35q-39 6 -39 33v69q0 23 19.5 37.5t82.5 14.5t83 -14.5t20 -37.5v-67q0 -16 -7.5 -23.5t-31.5 -11.5q39 -6 39 -35v-74q0 -31 -17.5 -46 t-85.5 -15q-59 0 -80.5 11t-21.5 50zM393 653q0 -14 7.5 -19t33.5 -5q27 0 34 6t7 18v70q0 12 -7 19.5t-34 7.5q-25 0 -33 -7.5t-8 -21.5v-68zM393 807q0 -27 41 -27t41 27v53q0 14 -8 21.5t-33 7.5q-41 0 -41 -29v-53z" />
<glyph unicode="&#xf8;" horiz-adv-x="663" d="M63 213v500q0 106 60.5 166.5t208.5 60.5q20 0 38.5 -1t35.5 -3l32 121h103l-41 -148q100 -53 100 -196v-500q0 -106 -59.5 -166.5t-208.5 -60.5q-49 0 -88 6l-25 -90h-94l33 118q-94 53 -95 193zM227 279l142 524q-8 0 -17.5 1t-19.5 1q-55 0 -80 -21.5t-25 -72.5v-432z M281 127q20 -6 51 -6q66 0 85 23.5t19 70.5v467z" />
<glyph unicode="&#xf9;" horiz-adv-x="745" d="M18 797v129h250v-729q0 -33 15.5 -51.5t62.5 -18.5q119 0 119 115v555h-70v129h234v-797h86v-129h-250v63q-31 -35 -77 -56t-118 -21q-90 0 -128 44t-38 136v631h-86zM90 1325h170l123 -289h-125z" />
<glyph unicode="&#xfa;" horiz-adv-x="745" d="M18 797v129h250v-729q0 -33 15.5 -51.5t62.5 -18.5q119 0 119 115v555h-70v129h234v-797h86v-129h-250v63q-31 -35 -77 -56t-118 -21q-90 0 -128 44t-38 136v631h-86zM297 1036l123 289h170l-168 -289h-125z" />
<glyph unicode="&#xfb;" horiz-adv-x="745" d="M18 797v129h250v-729q0 -33 15.5 -51.5t62.5 -18.5q119 0 119 115v555h-70v129h234v-797h86v-129h-250v63q-31 -35 -77 -56t-118 -21q-90 0 -128 44t-38 136v631h-86zM148 1036l121 289h172l120 -289h-116l-90 183l-91 -183h-116z" />
<glyph unicode="&#xfc;" horiz-adv-x="745" d="M18 797v129h250v-729q0 -33 15.5 -51.5t62.5 -18.5q119 0 119 115v555h-70v129h234v-797h86v-129h-250v63q-31 -35 -77 -56t-118 -21q-90 0 -128 44t-38 136v631h-86zM112 1036v209h180v-209h-180zM370 1036v209h180v-209h-180z" />
<glyph unicode="&#xfd;" horiz-adv-x="686" d="M16 797v129h250v-690q0 -70 14.5 -89.5t65.5 -19.5q47 0 63.5 28.5t16.5 75.5v566h-88v129h252v-1090q0 -119 -58.5 -172t-189.5 -53q-45 0 -75.5 2t-51.5 6q-23 4 -39 8v144q16 -6 39 -11q20 -4 48 -7t67 -3q59 0 77.5 30t18.5 60v203q-20 -23 -55 -40t-88 -17 q-47 0 -82 8t-56.5 31.5t-32 68.5t-10.5 119v584h-86zM278 1036l123 289h170l-168 -289h-125z" />
<glyph unicode="&#xfe;" horiz-adv-x="720" d="M31 -250h86v1614h-86v129h250v-631q33 35 80 56.5t106 21.5q98 0 142 -49t44 -146v-534q0 -109 -46 -167t-150 -58q-61 0 -100.5 14t-75.5 55v-305h86v-129h-336v129zM281 242q0 -53 26.5 -84t85.5 -31q53 0 74.5 21.5t21.5 68.5v492q0 41 -17 65.5t-79 24.5 q-51 0 -81.5 -24.5t-30.5 -90.5v-442z" />
<glyph unicode="&#xff;" horiz-adv-x="686" d="M16 797v129h250v-690q0 -70 14.5 -89.5t65.5 -19.5q47 0 63.5 28.5t16.5 75.5v566h-88v129h252v-1090q0 -119 -58.5 -172t-189.5 -53q-45 0 -75.5 2t-51.5 6q-23 4 -39 8v144q16 -6 39 -11q20 -4 48 -7t67 -3q59 0 77.5 30t18.5 60v203q-20 -23 -55 -40t-88 -17 q-47 0 -82 8t-56.5 31.5t-32 68.5t-10.5 119v584h-86zM102 1036v209h180v-209h-180zM360 1036v209h180v-209h-180z" />
<glyph unicode="&#x152;" horiz-adv-x="1226" d="M82 279v938q0 154 79 225t257 71q59 0 90 -4t57 -14h621v-403h-187v258h-247v-500h288v-145h-288v-560h249v265h187v-410h-623q-43 -10 -74.5 -14t-72.5 -4q-170 0 -253 66.5t-83 230.5zM268 270q0 -80 34 -111.5t116 -31.5q78 0 113.5 29.5t35.5 113.5v955 q0 76 -32.5 109.5t-116.5 33.5q-74 0 -112 -27.5t-38 -115.5v-955z" />
<glyph unicode="&#x153;" horiz-adv-x="976" d="M49 229v459q0 129 59.5 190.5t198.5 61.5q72 0 115 -20.5t72 -49.5q27 25 69.5 47.5t106.5 22.5q127 0 188.5 -62.5t61.5 -160.5v-279h-355v-207q0 -59 19.5 -87.5t85.5 -28.5t85 23.5t19 97.5v83h146v-86q0 -57 -10.5 -104t-38 -80t-75.5 -50t-126 -17q-66 0 -111 26.5 t-72 54.5q-16 -23 -66 -52t-114 -29q-127 0 -192.5 59t-65.5 188zM201 240q0 -61 23.5 -92t82.5 -31q106 0 107 123v442q0 61 -23.5 92t-83.5 31q-106 0 -106 -123v-442zM563 561h211v137q0 53 -20.5 80t-83.5 27t-85 -27.5t-22 -79.5v-137z" />
<glyph unicode="&#x178;" horiz-adv-x="944" d="M33 1350v145h387v-145h-105l158 -539l166 539h-123v145h395v-145h-102l-244 -707v-498h101v-145h-400v145h101v498l-234 707h-100zM256 1563v209h180v-209h-180zM514 1563v209h180v-209h-180z" />
<glyph unicode="&#x2c6;" horiz-adv-x="618" d="M117 1036l121 289h172l120 -289h-116l-90 183l-91 -183h-116z" />
<glyph unicode="&#x2dc;" horiz-adv-x="618" d="M66 1036q0 18 2 51t13 65t36.5 55.5t75.5 23.5q29 0 55 -11.5t53 -25.5q29 -14 53.5 -26.5t44.5 -12.5q31 0 46.5 13.5t15.5 54.5h92q0 -115 -34 -155t-105 -40q-31 0 -63 14.5t-60 30.5q-23 12 -44.5 21.5t-37.5 9.5q-33 0 -43 -23.5t-14 -44.5h-86z" />
<glyph unicode="&#x2000;" horiz-adv-x="954" />
<glyph unicode="&#x2001;" horiz-adv-x="1909" />
<glyph unicode="&#x2002;" horiz-adv-x="954" />
<glyph unicode="&#x2003;" horiz-adv-x="1909" />
<glyph unicode="&#x2004;" horiz-adv-x="636" />
<glyph unicode="&#x2005;" horiz-adv-x="477" />
<glyph unicode="&#x2006;" horiz-adv-x="318" />
<glyph unicode="&#x2007;" horiz-adv-x="318" />
<glyph unicode="&#x2008;" horiz-adv-x="238" />
<glyph unicode="&#x2009;" horiz-adv-x="381" />
<glyph unicode="&#x200a;" horiz-adv-x="106" />
<glyph unicode="&#x2010;" horiz-adv-x="524" d="M37 457v153h450v-153h-450z" />
<glyph unicode="&#x2011;" horiz-adv-x="524" d="M37 457v153h450v-153h-450z" />
<glyph unicode="&#x2012;" horiz-adv-x="524" d="M37 457v153h450v-153h-450z" />
<glyph unicode="&#x2013;" horiz-adv-x="577" d="M25 469v147h528v-147h-528z" />
<glyph unicode="&#x2014;" horiz-adv-x="1155" d="M25 469v147h1101v-147h-1101z" />
<glyph unicode="&#x2018;" horiz-adv-x="434" d="M37 967l235 528h136l-177 -528h-194z" />
<glyph unicode="&#x2019;" horiz-adv-x="434" d="M41 967l176 528h195l-236 -528h-135z" />
<glyph unicode="&#x201a;" horiz-adv-x="434" d="M41 -334l176 529h195l-236 -529h-135z" />
<glyph unicode="&#x201c;" horiz-adv-x="743" d="M37 967l235 528h136l-177 -528h-194zM344 967l236 528h135l-176 -528h-195z" />
<glyph unicode="&#x201d;" horiz-adv-x="743" d="M41 967l176 528h195l-236 -528h-135zM352 967l176 528h195l-236 -528h-135z" />
<glyph unicode="&#x201e;" horiz-adv-x="743" d="M41 -336l176 529h195l-236 -529h-135zM352 -336l176 529h195l-236 -529h-135z" />
<glyph unicode="&#x2022;" horiz-adv-x="329" d="M47 664v145q0 53 20.5 77.5t96.5 24.5q80 0 99.5 -26.5t19.5 -75.5v-145q0 -23 -2 -42.5t-14.5 -33t-36 -21.5t-66.5 -8q-80 0 -98.5 23.5t-18.5 81.5z" />
<glyph unicode="&#x2026;" horiz-adv-x="784" d="M45 0v195h195v-195h-195zM295 0v195h194v-195h-194zM545 0v195h194v-195h-194z" />
<glyph unicode="&#x202f;" horiz-adv-x="381" />
<glyph unicode="&#x2039;" horiz-adv-x="675" d="M45 461v4l377 461h188l-377 -463l377 -463h-188z" />
<glyph unicode="&#x203a;" horiz-adv-x="675" d="M31 0l377 463l-377 463h188l377 -461v-4l-377 -461h-188z" />
<glyph unicode="&#x205f;" horiz-adv-x="477" />
<glyph unicode="&#x2122;" horiz-adv-x="643" d="M10 1380v111h256v-111h-57v64h-41v-297h43v-47h-143v47h43v297h-43v-64h-58zM287 1100v47h37v297h-37v47h106l76 -213l70 213h108v-47h-37v-297h37v-47h-131v47h39v207l-82 -217h-10l-82 217v-207h35v-47h-129z" />
<glyph unicode="&#xe000;" horiz-adv-x="921" d="M0 0v922h922v-922h-922z" />
<glyph unicode="&#xfb01;" horiz-adv-x="747" d="M57 797v129h72v432q0 66 41 110.5t135 44.5q78 0 132.5 -10t92.5 -33v-149q-37 27 -88 40t-98 13q-23 0 -37 -11t-14 -40v-397h348v-797h86v-129h-317v129h67v668h-184v-668h65v-129h-299v129h70v668h-72z" />
<glyph unicode="&#xfb02;" horiz-adv-x="747" d="M61 797v129h72v385q0 115 41 158.5t158 43.5q47 0 77.5 -4t69.5 -14h160v-1366h96v-129h-323v129h67v1221q-23 10 -48 17t-54 7q-47 0 -64.5 -16.5t-17.5 -65.5v-366h139v-129h-137v-668h68v-129h-299v129h67v668h-72z" />
</font>
</defs>
</svg>
