<?xml version="1.0" encoding="utf-8"?>
<!-- Generator: Adobe Illustrator 17.1.0, SVG Export Plug-In . SVG Version: 6.00 Build 0)  -->
<!DOCTYPE svg PUBLIC "-//W3C//DTD SVG 1.1//EN" "http://www.w3.org/Graphics/SVG/1.1/DTD/svg11.dtd">
<svg version="1.1" id="Layer_1" xmlns="http://www.w3.org/2000/svg" xmlns:xlink="http://www.w3.org/1999/xlink" x="0px" y="0px"
	 viewBox="0 0 275.241 254" enable-background="new 0 0 275.241 254" xml:space="preserve">
<g>
	<path fill="#010101" d="M-1072.04-360.091c0-2.094-0.492-3.77-1.469-5.02c-0.984-1.246-2.824-1.867-5.527-1.867h-5.576v25.848
		h5.576c2.635,0,4.463-0.609,5.475-1.824c1.012-1.219,1.521-2.906,1.521-5.07V-360.091z M-1064.032-300.182
		c-2.434,0-4.361-0.586-5.777-1.773c-1.42-1.184-2.131-3.527-2.131-7.043v-18.051c0-2.086-0.488-3.762-1.473-5.012
		c-0.98-1.246-2.82-1.875-5.52-1.875h-5.68v26.559h5.275v7.195h-19.973v-7.195h5.473v-59.601h-5.473v-7.203h21.389
		c5.271,0,9.107,1.102,11.504,3.293c2.396,2.199,3.6,5.664,3.6,10.391v12.773c0,2.84-0.592,5.105-1.771,6.793
		c-1.184,1.691-3.195,2.84-6.035,3.445c5.275,1.219,7.906,4.53,7.906,9.933v17.336c0,1.148,0.174,1.91,0.51,2.281
		c0.336,0.375,1.043,0.559,2.127,0.559h2.232v7.195H-1064.032z"/>
	<path fill="#010101" d="M-1030.216-328.159c0-2.098-0.492-3.766-1.471-5.016c-0.98-1.254-2.824-1.878-5.525-1.878h-5.979v27.675
		h5.979c2.637,0,4.461-0.586,5.473-1.773c1.012-1.18,1.523-2.895,1.523-5.121V-328.159z M-1030.728-360.091
		c0-2.094-0.488-3.77-1.463-5.02c-0.984-1.246-2.828-1.871-5.529-1.871h-5.471v24.734h5.471c2.568,0,4.377-0.586,5.42-1.773
		c1.053-1.188,1.572-2.891,1.572-5.121V-360.091z M-1024.388-303.628c-2.268,2.301-6.172,3.449-11.707,3.449h-21.797v-7.199h5.477
		v-59.604h-5.477v-7.195h21.289c5.131,0,8.936,1.062,11.402,3.195c2.465,2.125,3.701,5.617,3.701,10.484v11.66
		c0,2.844-0.576,5.066-1.725,6.691c-1.148,1.621-3.141,2.805-5.984,3.547c2.568,0.402,4.584,1.402,6.033,2.988
		c1.451,1.589,2.18,3.901,2.18,6.944v14.797C-1020.995-309.335-1022.128-305.924-1024.388-303.628"/>
	<path fill="#010101" d="M-1059.999-399.287c-34.248,0-62.109,27.859-62.109,62.109c0,34.245,27.861,62.1,62.109,62.1
		s62.107-27.855,62.107-62.1C-997.892-371.427-1025.751-399.287-1059.999-399.287 M-1059.999-268.225
		c-38.025,0-68.957-30.934-68.957-68.952c0-38.023,30.932-68.957,68.957-68.957c38.02,0,68.955,30.934,68.955,68.957
		C-991.044-299.159-1021.979-268.225-1059.999-268.225"/>
</g>
<g>
	<path fill="#010101" d="M-1255.198-205.862c0-2.094-0.492-3.77-1.469-5.02c-0.984-1.246-2.824-1.867-5.527-1.867h-5.576v25.848
		h5.576c2.635,0,4.463-0.609,5.475-1.824c1.012-1.219,1.521-2.906,1.521-5.07V-205.862z M-1247.19-145.953
		c-2.434,0-4.361-0.586-5.777-1.773c-1.42-1.184-2.131-3.527-2.131-7.043v-18.051c0-2.086-0.488-3.762-1.473-5.012
		c-0.98-1.246-2.82-1.875-5.52-1.875h-5.68v26.559h5.275v7.195h-19.973v-7.195h5.473v-59.601h-5.473v-7.203h21.389
		c5.271,0,9.107,1.102,11.504,3.293c2.396,2.199,3.6,5.664,3.6,10.391v12.773c0,2.84-0.592,5.105-1.771,6.793
		c-1.184,1.692-3.195,2.84-6.035,3.445c5.275,1.219,7.906,4.53,7.906,9.933v17.336c0,1.148,0.174,1.91,0.51,2.281
		c0.336,0.375,1.043,0.559,2.127,0.559h2.232v7.195H-1247.19z"/>
	<path fill="#010101" d="M-1213.374-173.929c0-2.098-0.492-3.766-1.471-5.016c-0.98-1.254-2.824-1.878-5.525-1.878h-5.979v27.675
		h5.979c2.637,0,4.461-0.586,5.473-1.773c1.012-1.18,1.523-2.895,1.523-5.121V-173.929z M-1213.886-205.862
		c0-2.094-0.488-3.77-1.463-5.02c-0.984-1.246-2.828-1.871-5.529-1.871h-5.471v24.734h5.471c2.568,0,4.377-0.586,5.42-1.773
		c1.053-1.188,1.572-2.891,1.572-5.121V-205.862z M-1207.546-149.398c-2.268,2.301-6.172,3.449-11.707,3.449h-21.797v-7.199h5.477
		v-59.604h-5.477v-7.195h21.289c5.131,0,8.936,1.062,11.402,3.195c2.465,2.125,3.701,5.617,3.701,10.484v11.66
		c0,2.844-0.576,5.066-1.725,6.691c-1.148,1.621-3.141,2.805-5.984,3.547c2.568,0.402,4.584,1.402,6.033,2.988
		c1.451,1.589,2.18,3.901,2.18,6.944v14.797C-1204.153-155.105-1205.286-151.695-1207.546-149.398"/>
	<path fill="#010101" d="M-1243.157-245.057c-34.248,0-62.109,27.859-62.109,62.109c0,34.245,27.861,62.1,62.109,62.1
		s62.107-27.855,62.107-62.1C-1181.05-217.198-1208.909-245.057-1243.157-245.057 M-1243.157-113.996
		c-38.025,0-68.957-30.934-68.957-68.952c0-38.023,30.932-68.957,68.957-68.957c38.02,0,68.955,30.934,68.955,68.957
		C-1174.202-144.929-1205.138-113.996-1243.157-113.996"/>
	<path fill="#010101" d="M-1129.028-205.831c0-4.168-1.629-6.91-7.016-6.91h-5.588v25.914h5.588c5.287,0,7.016-2.539,7.016-6.91
		V-205.831z M-1121.001-145.765c-4.879,0-7.928-1.828-7.928-8.84v-18.094c0-4.168-1.623-6.91-7.012-6.91h-5.691v26.629h5.283v7.215
		h-20.02v-7.215h5.488v-59.761h-5.488v-7.215h21.443c10.469,0,15.145,4.266,15.145,13.719v12.809c0,5.691-2.137,9.043-7.828,10.262
		c5.184,1.223,7.928,4.37,7.928,9.96v17.379c0,2.238,0.508,2.848,2.645,2.848h2.236v7.215H-1121.001z"/>
	<path fill="#010101" d="M-1077.708-212.741v53.663c0,9.551-5.084,14.227-15.957,14.227c-10.367,0-15.955-4.168-15.955-14.227
		v-53.663h-5.488v-7.215h19.615v7.215h-4.879v54.272c0,4.266,1.729,6.402,6.908,6.402c4.676,0,6.912-1.828,6.912-6.402v-54.272
		h-4.877v-7.215h19.209v7.215H-1077.708z"/>
	<path fill="#010101" d="M-1053.619-144.851c-9.864,0-15.655-2.844-15.655-12.703v-8.539h9.248v8.434
		c0,4.066,1.524,5.594,6.407,5.594c4.469,0,6.398-1.117,6.398-5.594v-16.664c0-3.355-0.508-3.965-4.062-4.676l-8.843-1.324
		c-6.305-0.811-8.945-3.245-8.945-10.667v-17.176c0-8.641,4.676-12.703,15.452-12.703c9.547,0,15.445,3.352,15.445,12.703v8.23
		h-9.25v-8.129c0-3.965-1.625-5.59-6.195-5.59c-3.967,0-6.204,1.219-6.204,5.59v14.84c0,3.555,0.713,4.062,4.063,4.676l8.844,1.32
		c6.203,0.812,8.945,3.352,8.945,10.671v19.004C-1037.971-148.613-1043.057-144.851-1053.619-144.851"/>
	<polygon fill="#010101" points="-1002.197,-199.936 -1002.197,-213.147 -1008.701,-213.147 -1008.701,-152.98 -1002.807,-152.98 
		-1002.807,-145.769 -1023.846,-145.769 -1023.846,-152.98 -1017.947,-152.98 -1017.947,-213.147 -1024.455,-213.147 
		-1024.455,-199.936 -1032.682,-199.936 -1032.682,-219.956 -993.964,-219.956 -993.964,-199.936 	"/>
	<path fill="#010101" d="M-962.565-173.812c0-4.168-1.625-6.913-7.012-6.913h-5.996v27.745h5.996c5.285,0,7.012-2.441,7.012-6.914
		V-173.812z M-963.069-205.831c0-4.168-1.629-6.91-7.012-6.91h-5.492v24.801h5.492c5.18,0,7.012-2.441,7.012-6.914V-205.831z
		 M-968.456-145.765h-21.852v-7.215h5.492v-59.761h-5.492v-7.215h21.344c10.266,0,15.141,4.066,15.141,13.719v11.688
		c0,5.594-2.133,8.742-7.719,10.266c5.18,0.816,8.227,3.96,8.227,9.956v14.844C-953.315-150.437-957.378-145.765-968.456-145.765"/>
	<path fill="#010101" d="M-912.761-212.741v53.663c0,9.551-5.086,14.227-15.957,14.227c-10.371,0-15.957-4.168-15.957-14.227
		v-53.663h-5.492v-7.215h19.621v7.215h-4.879v54.272c0,4.266,1.727,6.402,6.906,6.402c4.676,0,6.914-1.828,6.914-6.402v-54.272
		h-4.875v-7.215h19.203v7.215H-912.761z"/>
	<polygon fill="#010101" points="-903.718,-145.765 -903.718,-152.98 -898.229,-152.98 -898.229,-212.741 -903.718,-212.741 
		-903.718,-219.956 -883.495,-219.956 -883.495,-212.741 -888.979,-212.741 -888.979,-152.98 -883.495,-152.98 -883.495,-145.765 	
		"/>
	<polygon fill="#010101" points="-878.815,-145.765 -878.815,-152.98 -873.331,-152.98 -873.331,-212.741 -878.815,-212.741 
		-878.815,-219.956 -858.187,-219.956 -858.187,-212.741 -864.081,-212.741 -864.081,-152.98 -852.8,-152.98 -852.8,-166.093 
		-843.55,-166.093 -843.55,-145.765 	"/>
	<polygon fill="#010101" points="-816.116,-199.936 -816.116,-213.147 -822.624,-213.147 -822.624,-152.98 -816.729,-152.98 
		-816.729,-145.769 -837.765,-145.769 -837.765,-152.98 -831.87,-152.98 -831.87,-213.147 -838.378,-213.147 -838.378,-199.936 
		-846.604,-199.936 -846.604,-219.956 -807.886,-219.956 -807.886,-199.936 	"/>
</g>
<path fill="#616262" d="M-575.824-355.348c0-2.094-0.492-3.77-1.469-5.02c-0.984-1.246-2.824-1.867-5.527-1.867h-5.576v25.848h5.576
	c2.635,0,4.463-0.609,5.475-1.824c1.012-1.219,1.522-2.906,1.522-5.07V-355.348z M-567.816-295.438
	c-2.434,0-4.361-0.586-5.777-1.773c-1.42-1.184-2.131-3.527-2.131-7.043v-18.051c0-2.086-0.488-3.762-1.473-5.012
	c-0.98-1.246-2.82-1.875-5.519-1.875h-5.68v26.559h5.275v7.195h-19.973v-7.195h5.473v-59.601h-5.473v-7.203h21.389
	c5.271,0,9.107,1.102,11.504,3.293c2.396,2.199,3.6,5.664,3.6,10.391v12.773c0,2.84-0.592,5.105-1.771,6.793
	c-1.184,1.691-3.195,2.84-6.035,3.445c5.275,1.219,7.906,4.53,7.906,9.933v17.336c0,1.148,0.174,1.91,0.51,2.281
	c0.336,0.375,1.043,0.559,2.127,0.559h2.232v7.195H-567.816z"/>
<path fill="#616262" d="M-534-323.415c0-2.098-0.492-3.766-1.471-5.016c-0.98-1.254-2.824-1.878-5.525-1.878h-5.979v27.675h5.979
	c2.637,0,4.461-0.586,5.473-1.773c1.012-1.18,1.523-2.895,1.523-5.121V-323.415z M-534.512-355.348c0-2.094-0.488-3.77-1.463-5.02
	c-0.984-1.246-2.828-1.871-5.529-1.871h-5.471v24.734h5.471c2.568,0,4.377-0.586,5.42-1.773c1.053-1.188,1.572-2.891,1.572-5.121
	V-355.348z M-528.172-298.884c-2.268,2.301-6.172,3.449-11.707,3.449h-21.797v-7.199h5.477v-59.605h-5.477v-7.195h21.289
	c5.131,0,8.936,1.062,11.402,3.195c2.465,2.125,3.701,5.617,3.701,10.484v11.66c0,2.844-0.576,5.066-1.725,6.691
	c-1.148,1.621-3.141,2.805-5.984,3.547c2.568,0.402,4.584,1.402,6.033,2.988c1.451,1.589,2.18,3.901,2.18,6.944v14.797
	C-524.779-304.591-525.912-301.181-528.172-298.884"/>
<path fill="#616262" d="M-563.783-394.543c-34.248,0-62.109,27.859-62.109,62.109c0,34.245,27.861,62.1,62.109,62.1
	c34.248,0,62.107-27.855,62.107-62.1C-501.676-366.684-529.535-394.543-563.783-394.543 M-563.783-263.481
	c-38.025,0-68.957-30.934-68.957-68.952c0-38.023,30.932-68.957,68.957-68.957c38.019,0,68.955,30.934,68.955,68.957
	C-494.828-294.415-525.764-263.481-563.783-263.481"/>
<path d="M-575.824-183.907c0-2.094-0.492-3.769-1.469-5.019c-0.984-1.246-2.824-1.867-5.527-1.867h-5.576v25.848h5.576
	c2.635,0,4.463-0.609,5.475-1.824c1.012-1.219,1.522-2.906,1.522-5.07V-183.907z M-567.816-123.998
	c-2.434,0-4.361-0.586-5.777-1.774c-1.42-1.184-2.131-3.527-2.131-7.043v-18.051c0-2.086-0.488-3.762-1.473-5.012
	c-0.98-1.246-2.82-1.875-5.519-1.875h-5.68v26.559h5.275v7.195h-19.973v-7.195h5.473v-59.601h-5.473v-7.203h21.389
	c5.271,0,9.107,1.102,11.504,3.293c2.396,2.199,3.6,5.664,3.6,10.391v12.773c0,2.84-0.592,5.105-1.771,6.793
	c-1.184,1.691-3.195,2.84-6.035,3.445c5.275,1.219,7.906,4.53,7.906,9.933v17.336c0,1.148,0.174,1.91,0.51,2.281
	c0.336,0.375,1.043,0.559,2.127,0.559h2.232v7.195H-567.816z"/>
<path d="M-534-151.974c0-2.098-0.492-3.766-1.471-5.016c-0.98-1.254-2.824-1.878-5.525-1.878h-5.979v27.675h5.979
	c2.637,0,4.461-0.586,5.473-1.773c1.012-1.18,1.523-2.895,1.523-5.121V-151.974z M-534.512-183.907c0-2.094-0.488-3.769-1.463-5.019
	c-0.984-1.246-2.828-1.871-5.529-1.871h-5.471v24.734h5.471c2.568,0,4.377-0.586,5.42-1.773c1.053-1.188,1.572-2.891,1.572-5.121
	V-183.907z M-528.172-127.443c-2.268,2.301-6.172,3.449-11.707,3.449h-21.797v-7.199h5.477v-59.605h-5.477v-7.195h21.289
	c5.131,0,8.936,1.062,11.402,3.195c2.465,2.125,3.701,5.617,3.701,10.484v11.66c0,2.844-0.576,5.066-1.725,6.691
	c-1.148,1.621-3.141,2.805-5.984,3.547c2.568,0.402,4.584,1.402,6.033,2.988c1.451,1.589,2.18,3.901,2.18,6.944v14.797
	C-524.779-133.15-525.912-129.74-528.172-127.443"/>
<path d="M-563.783-223.102c-34.248,0-62.109,27.859-62.109,62.109c0,34.245,27.861,62.101,62.109,62.101
	c34.248,0,62.107-27.855,62.107-62.101C-501.676-195.243-529.535-223.102-563.783-223.102 M-563.783-92.041
	c-38.025,0-68.957-30.934-68.957-68.952c0-38.023,30.932-68.957,68.957-68.957c38.019,0,68.955,30.934,68.955,68.957
	C-494.828-122.974-525.764-92.041-563.783-92.041"/>
<path fill="#616262" d="M-449.654-355.316c0-4.168-1.629-6.91-7.016-6.91h-5.588v25.914h5.588c5.287,0,7.016-2.539,7.016-6.91
	V-355.316z M-441.627-295.251c-4.879,0-7.928-1.828-7.928-8.84v-18.094c0-4.168-1.623-6.91-7.012-6.91h-5.691v26.629h5.283v7.215
	h-20.02v-7.215h5.488v-59.761h-5.488v-7.215h21.443c10.469,0,15.145,4.266,15.145,13.719v12.809c0,5.691-2.137,9.043-7.828,10.262
	c5.184,1.223,7.928,4.37,7.928,9.96v17.379c0,2.238,0.508,2.848,2.645,2.848h2.236v7.215H-441.627z"/>
<path fill="#616262" d="M-398.334-362.227v53.663c0,9.551-5.084,14.227-15.957,14.227c-10.367,0-15.955-4.168-15.955-14.227v-53.663
	h-5.488v-7.215h19.615v7.215h-4.879v54.272c0,4.266,1.729,6.402,6.908,6.402c4.676,0,6.912-1.828,6.912-6.402v-54.272h-4.877v-7.215
	h19.209v7.215H-398.334z"/>
<path fill="#616262" d="M-374.245-294.337c-9.864,0-15.655-2.844-15.655-12.703v-8.539h9.248v8.434c0,4.066,1.524,5.594,6.407,5.594
	c4.469,0,6.398-1.117,6.398-5.594v-16.664c0-3.355-0.508-3.965-4.062-4.676l-8.843-1.324c-6.305-0.811-8.945-3.245-8.945-10.667
	v-17.176c0-8.641,4.676-12.703,15.452-12.703c9.547,0,15.445,3.352,15.445,12.703v8.23h-9.25v-8.129c0-3.965-1.625-5.59-6.195-5.59
	c-3.967,0-6.204,1.219-6.204,5.59v14.84c0,3.555,0.713,4.062,4.063,4.676l8.844,1.32c6.203,0.812,8.945,3.352,8.945,10.671v19.004
	C-358.596-298.099-363.682-294.337-374.245-294.337"/>
<polygon fill="#616262" points="-322.823,-349.422 -322.823,-362.633 -329.327,-362.633 -329.327,-302.466 -323.432,-302.466 
	-323.432,-295.255 -344.471,-295.255 -344.471,-302.466 -338.573,-302.466 -338.573,-362.633 -345.081,-362.633 -345.081,-349.422 
	-353.307,-349.422 -353.307,-369.441 -314.59,-369.441 -314.59,-349.422 "/>
<path fill="#616262" d="M-283.191-323.298c0-4.168-1.625-6.913-7.012-6.913h-5.996v27.745h5.996c5.285,0,7.012-2.441,7.012-6.914
	V-323.298z M-283.695-355.316c0-4.168-1.629-6.91-7.012-6.91h-5.492v24.801h5.492c5.18,0,7.012-2.441,7.012-6.914V-355.316z
	 M-289.082-295.251h-21.852v-7.215h5.492v-59.761h-5.492v-7.215h21.344c10.266,0,15.141,4.066,15.141,13.719v11.688
	c0,5.594-2.133,8.742-7.719,10.266c5.18,0.816,8.227,3.96,8.227,9.956v14.844C-273.941-299.923-278.004-295.251-289.082-295.251"/>
<path fill="#616262" d="M-233.387-362.227v53.663c0,9.551-5.086,14.227-15.957,14.227c-10.371,0-15.957-4.168-15.957-14.227v-53.663
	h-5.492v-7.215h19.621v7.215h-4.879v54.272c0,4.266,1.727,6.402,6.906,6.402c4.676,0,6.914-1.828,6.914-6.402v-54.272h-4.875v-7.215
	h19.203v7.215H-233.387z"/>
<polygon fill="#616262" points="-224.344,-295.251 -224.344,-302.466 -218.855,-302.466 -218.855,-362.227 -224.344,-362.227 
	-224.344,-369.441 -204.121,-369.441 -204.121,-362.227 -209.605,-362.227 -209.605,-302.466 -204.121,-302.466 -204.121,-295.251 
	"/>
<polygon fill="#616262" points="-199.441,-295.251 -199.441,-302.466 -193.957,-302.466 -193.957,-362.227 -199.441,-362.227 
	-199.441,-369.441 -178.812,-369.441 -178.812,-362.227 -184.707,-362.227 -184.707,-302.466 -173.426,-302.466 -173.426,-315.579 
	-164.176,-315.579 -164.176,-295.251 "/>
<polygon fill="#616262" points="-136.742,-349.422 -136.742,-362.633 -143.25,-362.633 -143.25,-302.466 -137.355,-302.466 
	-137.355,-295.255 -158.39,-295.255 -158.39,-302.466 -152.496,-302.466 -152.496,-362.633 -159.004,-362.633 -159.004,-349.422 
	-167.23,-349.422 -167.23,-369.441 -128.512,-369.441 -128.512,-349.422 "/>
<text transform="matrix(1 0 0 1 -1223.8706 -14.1911)" font-family="'Constructa-Regular'" font-size="78.7483">CONSTRUCTA</text>
<text transform="matrix(1 0 0 1 -1323.1907 66.1698)" font-family="'TradeGothic-BoldCondTwenty'" font-size="43.232">Trade Gothic Bold Condensed #20</text>
<text transform="matrix(1 0 0 1 -1116.7393 124.3333)" font-family="'ChaparralPro-Regular'" font-size="20">Chaparral Pro</text>
<rect x="-1336" y="170.243" width="116" height="116"/>
<rect x="-1190.667" y="170.243" fill="#9B7144" width="116" height="116"/>
<rect x="-1045.333" y="170.243" fill="#523A1C" width="116" height="116"/>
<rect x="-900" y="170.243" fill="#FAFBFB" width="116" height="116"/>
<text transform="matrix(1 0 0 1 -1322.999 310.9095)" font-family="'LucidaGrande'" font-size="20">#231F20</text>
<text transform="matrix(1 0 0 1 -1173.999 310.9095)" font-family="'LucidaGrande'" font-size="20">#9B7144</text>
<text transform="matrix(1 0 0 1 -1032.6655 310.9095)" font-family="'LucidaGrande'" font-size="20">#523A1B</text>
<text transform="matrix(1 0 0 1 -887.3325 310.9095)" font-family="'LucidaGrande'" font-size="20">#FAFAFA</text>
<text transform="matrix(1 0 0 1 -478.9941 -123.9225)" font-family="'Constructa-Regular'" font-size="100.7779">PITTSBURGH</text>
<g>
	<path fill="#FFCD05" d="M16.16,230.434h-5.009v14.959h3.705v4.872H1.201v-4.872h3.705v-40.348H1.201v-4.872H16.16
		c6.862,0,10.225,2.745,10.225,9.264v11.733C26.385,227.278,23.64,230.434,16.16,230.434z M20.14,209.711
		c0-2.813-1.029-4.666-4.734-4.666h-4.254v20.517h4.254c3.568,0,4.734-1.715,4.734-4.666V209.711z"/>
	<path fill="#FFCD05" d="M29.954,250.265v-4.872h3.705v-40.348h-3.705v-4.872h13.654v4.872h-3.705v40.348h3.705v4.872H29.954z"/>
	<path fill="#FFCD05" d="M67.146,213.691v-8.92h-4.392v40.622h3.979v4.872H52.53v-4.872h3.98v-40.622h-4.392v8.92h-5.559v-13.518
		h26.144v13.518H67.146z"/>
	<path fill="#FFCD05" d="M95.556,213.691v-8.92h-4.392v40.622h3.979v4.872H80.939v-4.872h3.98v-40.622h-4.392v8.92H74.97v-13.518
		h26.144v13.518H95.556z"/>
	<path fill="#FFCD05" d="M115.044,250.882c-6.655,0-10.566-1.921-10.566-8.577v-5.764h6.244v5.695c0,2.745,1.029,3.774,4.322,3.774
		c3.02,0,4.323-0.755,4.323-3.774v-11.254c0-2.264-0.343-2.676-2.744-3.156l-5.971-0.892c-4.254-0.549-6.038-2.196-6.038-7.205
		v-11.597c0-5.833,3.156-8.577,10.43-8.577c6.45,0,10.431,2.264,10.431,8.577v5.558h-6.244v-5.489c0-2.676-1.099-3.773-4.187-3.773
		c-2.676,0-4.186,0.823-4.186,3.773v10.019c0,2.401,0.48,2.745,2.745,3.156l5.97,0.893c4.186,0.549,6.038,2.264,6.038,7.205v12.831
		C125.611,248.344,122.181,250.882,115.044,250.882z"/>
	<path fill="#FFCD05" d="M144.14,250.265h-14.753v-4.872h3.705v-40.348h-3.705v-4.872h14.41c6.931,0,10.224,2.745,10.224,9.264
		v7.891c0,3.774-1.44,5.901-5.215,6.931c3.5,0.549,5.559,2.677,5.559,6.725v10.019C154.364,247.109,151.619,250.265,144.14,250.265z
		 M147.776,209.711c0-2.813-1.098-4.666-4.734-4.666h-3.705v16.743h3.705c3.499,0,4.734-1.647,4.734-4.666V209.711z M148.12,231.326
		c0-2.813-1.099-4.666-4.735-4.666h-4.048v18.732h4.048c3.568,0,4.735-1.646,4.735-4.666V231.326z"/>
	<path fill="#FFCD05" d="M181.742,205.045v36.23c0,6.45-3.431,9.606-10.772,9.606c-6.999,0-10.773-2.812-10.773-9.606v-36.23h-3.705
		v-4.872h13.243v4.872h-3.294v36.643c0,2.882,1.167,4.323,4.666,4.323c3.157,0,4.666-1.235,4.666-4.323v-36.643h-3.293v-4.872
		h12.969v4.872H181.742z"/>
	<path fill="#FFCD05" d="M211.594,250.265c-3.293,0-5.352-1.235-5.352-5.97v-12.214c0-2.813-1.098-4.666-4.735-4.666h-3.842v17.978
		h3.567v4.872h-13.518v-4.872h3.705v-40.348h-3.705v-4.872h14.479c7.067,0,10.225,2.882,10.225,9.264v8.646
		c0,3.843-1.441,6.107-5.284,6.931c3.5,0.823,5.353,2.951,5.353,6.725v11.734c0,1.51,0.343,1.921,1.784,1.921h1.51v4.872H211.594z
		 M206.173,209.711c0-2.813-1.098-4.666-4.734-4.666h-3.773v17.498h3.773c3.568,0,4.734-1.716,4.734-4.666V209.711z"/>
	<path fill="#FFCD05" d="M229.985,250.882c-7.479,0-10.772-3.156-10.772-9.469v-32.389c0-5.97,3.019-9.469,10.772-9.469
		c7.411,0,10.773,3.225,10.773,9.469v5.216h-6.244v-5.49c0-2.95-0.893-4.322-4.529-4.322c-3.088,0-4.528,0.823-4.528,4.322v32.938
		c0,3.156,1.029,4.323,4.528,4.323c3.226,0,4.529-1.029,4.529-4.323v-10.842h-4.734v-4.872h10.979v15.439
		C240.759,247.315,237.877,250.882,229.985,250.882z"/>
	<path fill="#FFCD05" d="M260.728,250.265v-4.872h3.362V226.66h-9.469v18.732h3.362v4.872h-13.312v-4.872h3.705v-40.348h-3.705
		v-4.872h13.312v4.872h-3.362v16.743h9.469v-16.743h-3.362v-4.872h13.312v4.872h-3.706v40.348h3.706v4.872H260.728z"/>
</g>
<g>
	<path fill="#FFCD05" d="M-612.04-8.761c0-1.033-0.243-1.859-0.724-2.476c-0.486-0.615-1.393-0.921-2.726-0.921h-2.75V0.59h2.75
		c1.299,0,2.201-0.301,2.7-0.9c0.499-0.601,0.75-1.433,0.75-2.501V-8.761z M-608.091,20.784c-1.2,0-2.151-0.289-2.849-0.875
		c-0.7-0.584-1.051-1.74-1.051-3.473V7.534c0-1.029-0.241-1.855-0.726-2.472c-0.484-0.614-1.391-0.925-2.722-0.925h-2.801v13.098
		h2.602v3.549h-9.85v-3.549h2.699v-29.394h-2.699v-3.552h10.548c2.6,0,4.491,0.543,5.673,1.624c1.182,1.085,1.775,2.793,1.775,5.124
		v6.3c0,1.401-0.292,2.518-0.874,3.35c-0.584,0.834-1.576,1.401-2.976,1.699c2.602,0.601,3.899,2.234,3.899,4.899v8.55
		c0,0.566,0.086,0.942,0.251,1.125c0.166,0.185,0.514,0.275,1.049,0.275h1.101v3.549H-608.091z"/>
	<path fill="#FFCD05" d="M-591.413,6.987c0-1.034-0.243-1.857-0.725-2.473c-0.484-0.618-1.393-0.926-2.725-0.926h-2.948v13.649
		h2.948c1.3,0,2.2-0.289,2.699-0.875c0.499-0.582,0.751-1.427,0.751-2.526V6.987z M-591.665-8.761c0-1.033-0.241-1.859-0.721-2.476
		c-0.485-0.615-1.395-0.923-2.727-0.923h-2.698V0.039h2.698c1.267,0,2.159-0.289,2.673-0.875c0.519-0.586,0.775-1.425,0.775-2.526
		V-8.761z M-588.539,19.085c-1.118,1.135-3.044,1.701-5.774,1.701h-10.75v-3.55h2.701V-12.16h-2.701v-3.549h10.499
		c2.53,0,4.407,0.524,5.623,1.576c1.216,1.048,1.825,2.77,1.825,5.171v5.75c0,1.402-0.284,2.499-0.851,3.3
		c-0.566,0.799-1.549,1.383-2.951,1.749c1.267,0.198,2.261,0.692,2.975,1.474c0.716,0.784,1.075,1.924,1.075,3.425v7.298
		C-586.866,16.271-587.424,17.952-588.539,19.085"/>
	<path fill="#FFCD05" d="M-606.101-28.092c-16.89,0-30.631,13.74-30.631,30.631c0,16.889,13.741,30.627,30.631,30.627
		c16.89,0,30.63-13.738,30.63-30.627C-575.471-14.352-589.211-28.092-606.101-28.092 M-606.101,36.545
		c-18.753,0-34.008-15.256-34.008-34.005c0-18.752,15.255-34.008,34.008-34.008c18.75,0,34.007,15.256,34.007,34.008
		C-572.094,21.289-587.351,36.545-606.101,36.545"/>
	<text transform="matrix(1 0 0 1 -564.2871 20.8192)" fill="#FFCD05" font-family="'Constructa-Regular'" font-size="49.7012">PITTSBURGH</text>
</g>
<path fill="#FFCD05" d="M-612.04,74.989c0-1.033-0.243-1.859-0.724-2.476c-0.486-0.615-1.393-0.921-2.726-0.921h-2.75V84.34h2.75
	c1.299,0,2.201-0.3,2.7-0.9c0.499-0.601,0.75-1.433,0.75-2.501V74.989z M-608.091,104.534c-1.2,0-2.151-0.289-2.849-0.875
	c-0.7-0.584-1.051-1.74-1.051-3.473v-8.902c0-1.029-0.241-1.855-0.726-2.472c-0.484-0.615-1.391-0.925-2.722-0.925h-2.801v13.098
	h2.602v3.549h-9.85v-3.549h2.699V71.592h-2.699V68.04h10.548c2.6,0,4.491,0.543,5.673,1.624c1.182,1.085,1.775,2.793,1.775,5.124
	v6.3c0,1.401-0.292,2.518-0.874,3.35c-0.584,0.834-1.576,1.4-2.976,1.699c2.602,0.601,3.899,2.234,3.899,4.899v8.55
	c0,0.566,0.086,0.942,0.251,1.125c0.166,0.185,0.514,0.275,1.049,0.275h1.101v3.549H-608.091z"/>
<path fill="#FFCD05" d="M-591.413,90.737c0-1.035-0.243-1.857-0.725-2.473c-0.484-0.618-1.393-0.926-2.725-0.926h-2.948v13.649
	h2.948c1.3,0,2.2-0.289,2.699-0.875c0.499-0.582,0.751-1.427,0.751-2.526V90.737z M-591.665,74.989c0-1.033-0.241-1.859-0.721-2.476
	c-0.485-0.615-1.395-0.923-2.727-0.923h-2.698v12.198h2.698c1.267,0,2.159-0.289,2.673-0.875c0.519-0.586,0.775-1.425,0.775-2.526
	V74.989z M-588.539,102.835c-1.118,1.135-3.044,1.701-5.774,1.701h-10.75v-3.55h2.701V71.59h-2.701v-3.549h10.499
	c2.53,0,4.407,0.524,5.623,1.576c1.216,1.048,1.825,2.77,1.825,5.171v5.751c0,1.402-0.284,2.499-0.851,3.3
	c-0.566,0.799-1.549,1.383-2.951,1.749c1.267,0.198,2.261,0.692,2.975,1.474c0.716,0.784,1.075,1.924,1.075,3.425v7.298
	C-586.866,100.021-587.424,101.702-588.539,102.835"/>
<path fill="#FFCD05" d="M-606.101,55.658c-16.89,0-30.631,13.74-30.631,30.631c0,16.889,13.741,30.627,30.631,30.627
	c16.89,0,30.63-13.738,30.63-30.627C-575.471,69.398-589.211,55.658-606.101,55.658 M-606.101,120.295
	c-18.753,0-34.008-15.256-34.008-34.006c0-18.752,15.255-34.008,34.008-34.008c18.75,0,34.007,15.256,34.007,34.008
	C-572.094,105.039-587.351,120.295-606.101,120.295"/>
<text transform="matrix(1 0 0 1 -564.4375 104.514)" fill="#FFCD05" font-family="'Constructa-Regular'" font-size="49.8197">PGH</text>
<g>
	<path fill="#DEDDDD" d="M-645.499,190.747c0-0.488-0.115-0.878-0.342-1.169c-0.229-0.29-0.658-0.435-1.287-0.435h-1.299v6.02h1.299
		c0.614,0,1.039-0.142,1.275-0.425c0.236-0.284,0.354-0.677,0.354-1.181V190.747z M-643.634,204.7c-0.567,0-1.016-0.136-1.346-0.413
		c-0.331-0.276-0.496-0.822-0.496-1.64v-4.204c0-0.486-0.114-0.876-0.343-1.167c-0.228-0.29-0.657-0.437-1.286-0.437h-1.323v6.186
		h1.229v1.676h-4.652v-1.676h1.275v-13.881h-1.275v-1.678h4.982c1.228,0,2.121,0.257,2.679,0.767
		c0.558,0.512,0.838,1.319,0.838,2.42v2.975c0,0.661-0.138,1.189-0.413,1.582c-0.276,0.394-0.744,0.661-1.406,0.802
		c1.229,0.284,1.841,1.055,1.841,2.313v4.038c0,0.267,0.04,0.445,0.119,0.531c0.078,0.087,0.243,0.13,0.495,0.13h0.52v1.676
		H-643.634z"/>
	<path fill="#DEDDDD" d="M-635.758,198.184c0-0.488-0.115-0.877-0.342-1.168c-0.228-0.292-0.658-0.437-1.287-0.437h-1.392v6.446
		h1.392c0.614,0,1.039-0.136,1.275-0.413c0.236-0.275,0.355-0.674,0.355-1.193V198.184z M-635.877,190.747
		c0-0.488-0.114-0.878-0.341-1.169c-0.229-0.29-0.659-0.436-1.288-0.436h-1.274v5.761h1.274c0.598,0,1.019-0.136,1.262-0.413
		c0.245-0.276,0.366-0.673,0.366-1.193V190.747z M-634.401,203.898c-0.528,0.536-1.437,0.803-2.727,0.803h-5.077v-1.677h1.276
		v-13.882h-1.276v-1.676h4.958c1.195,0,2.081,0.247,2.656,0.744c0.574,0.495,0.862,1.308,0.862,2.442v2.716
		c0,0.662-0.134,1.18-0.402,1.558c-0.267,0.378-0.731,0.653-1.394,0.826c0.598,0.094,1.068,0.327,1.405,0.696
		c0.338,0.37,0.508,0.909,0.508,1.617v3.446C-633.61,202.569-633.874,203.363-634.401,203.898"/>
	<path fill="#DEDDDD" d="M-642.695,181.618c-7.977,0-14.466,6.489-14.466,14.466c0,7.976,6.489,14.464,14.466,14.464
		s14.465-6.488,14.465-14.464C-628.229,188.107-634.718,181.618-642.695,181.618 M-642.695,212.143
		c-8.856,0-16.06-7.204-16.06-16.059c0-8.856,7.204-16.06,16.06-16.06c8.855,0,16.06,7.204,16.06,16.06
		C-626.635,204.939-633.84,212.143-642.695,212.143"/>
	<path fill="#DEDDDD" d="M-616.113,190.754c0-0.971-0.379-1.609-1.634-1.609h-1.302v6.035h1.302c1.231,0,1.634-0.591,1.634-1.609
		V190.754z M-614.244,204.744c-1.136,0-1.846-0.426-1.846-2.059v-4.214c0-0.971-0.378-1.609-1.633-1.609h-1.326v6.202h1.231v1.68
		h-4.663v-1.68h1.278v-13.919h-1.278v-1.68h4.994c2.438,0,3.527,0.993,3.527,3.195v2.983c0,1.326-0.498,2.106-1.823,2.39
		c1.207,0.285,1.846,1.018,1.846,2.32v4.048c0,0.521,0.118,0.663,0.616,0.663h0.521v1.68H-614.244z"/>
	<path fill="#DEDDDD" d="M-604.161,189.145v12.498c0,2.224-1.184,3.313-3.716,3.313c-2.415,0-3.716-0.971-3.716-3.313v-12.498
		h-1.278v-1.68h4.568v1.68h-1.136v12.64c0,0.993,0.403,1.491,1.609,1.491c1.089,0,1.61-0.426,1.61-1.491v-12.64h-1.136v-1.68h4.474
		v1.68H-604.161z"/>
	<path fill="#DEDDDD" d="M-598.55,204.957c-2.297,0-3.646-0.662-3.646-2.959v-1.989h2.154v1.964c0,0.947,0.355,1.303,1.492,1.303
		c1.041,0,1.49-0.26,1.49-1.303v-3.881c0-0.782-0.118-0.923-0.946-1.089l-2.06-0.308c-1.468-0.189-2.083-0.756-2.083-2.484v-4
		c0-2.012,1.089-2.959,3.599-2.959c2.224,0,3.597,0.781,3.597,2.959v1.917h-2.154v-1.893c0-0.924-0.379-1.302-1.443-1.302
		c-0.924,0-1.445,0.284-1.445,1.302v3.456c0,0.828,0.166,0.946,0.946,1.089l2.06,0.307c1.445,0.189,2.083,0.781,2.083,2.485v4.426
		C-594.906,204.081-596.09,204.957-598.55,204.957"/>
	<polygon fill="#DEDDDD" points="-586.574,192.127 -586.574,189.05 -588.089,189.05 -588.089,203.064 -586.716,203.064 
		-586.716,204.743 -591.616,204.743 -591.616,203.064 -590.242,203.064 -590.242,189.05 -591.758,189.05 -591.758,192.127 
		-593.674,192.127 -593.674,187.465 -584.656,187.465 -584.656,192.127 	"/>
	<path fill="#DEDDDD" d="M-577.343,198.212c0-0.971-0.378-1.61-1.633-1.61h-1.396v6.462h1.396c1.231,0,1.633-0.569,1.633-1.61
		V198.212z M-577.461,190.754c0-0.971-0.379-1.609-1.633-1.609h-1.279v5.776h1.279c1.206,0,1.633-0.569,1.633-1.61V190.754z
		 M-578.715,204.744h-5.089v-1.68h1.279v-13.919h-1.279v-1.68h4.971c2.391,0,3.526,0.947,3.526,3.195v2.722
		c0,1.303-0.497,2.036-1.798,2.391c1.206,0.19,1.916,0.922,1.916,2.319v3.457C-575.189,203.656-576.135,204.744-578.715,204.744"/>
	<path fill="#DEDDDD" d="M-565.744,189.145v12.498c0,2.224-1.185,3.313-3.716,3.313c-2.415,0-3.716-0.971-3.716-3.313v-12.498
		h-1.279v-1.68h4.57v1.68h-1.136v12.64c0,0.993,0.402,1.491,1.609,1.491c1.089,0,1.61-0.426,1.61-1.491v-12.64h-1.135v-1.68h4.472
		v1.68H-565.744z"/>
	<polygon fill="#DEDDDD" points="-563.638,204.744 -563.638,203.064 -562.359,203.064 -562.359,189.145 -563.638,189.145 
		-563.638,187.465 -558.928,187.465 -558.928,189.145 -560.205,189.145 -560.205,203.064 -558.928,203.064 -558.928,204.744 	"/>
	<polygon fill="#DEDDDD" points="-557.838,204.744 -557.838,203.064 -556.56,203.064 -556.56,189.145 -557.838,189.145 
		-557.838,187.465 -553.033,187.465 -553.033,189.145 -554.406,189.145 -554.406,203.064 -551.779,203.064 -551.779,200.009 
		-549.624,200.009 -549.624,204.744 	"/>
	<polygon fill="#DEDDDD" points="-543.235,192.127 -543.235,189.05 -544.751,189.05 -544.751,203.064 -543.378,203.064 
		-543.378,204.743 -548.277,204.743 -548.277,203.064 -546.904,203.064 -546.904,189.05 -548.42,189.05 -548.42,192.127 
		-550.336,192.127 -550.336,187.465 -541.318,187.465 -541.318,192.127 	"/>
</g>
<g>
	<path fill="#FFCD05" d="M122.649,65.785c0-2.604-0.612-4.687-1.827-6.242c-1.224-1.55-3.512-2.322-6.873-2.322h-6.934v32.142h6.934
		c3.276,0,5.55-0.758,6.808-2.268c1.258-1.515,1.892-3.614,1.892-6.305V65.785z M132.606,140.284c-3.026,0-5.424-0.729-7.184-2.205
		c-1.766-1.472-2.65-4.386-2.65-8.758v-22.447c0-2.594-0.607-4.678-1.831-6.232c-1.219-1.55-3.507-2.332-6.864-2.332h-7.063v33.026
		h6.56v8.948H88.738v-8.948h6.805V57.222h-6.805v-8.957h26.597c6.555,0,11.325,1.37,14.305,4.095
		c2.98,2.735,4.476,7.043,4.476,12.921v15.884c0,3.531-0.736,6.349-2.203,8.447c-1.472,2.103-3.973,3.531-7.505,4.284
		c6.56,1.515,9.832,5.633,9.832,12.351v21.558c0,1.428,0.216,2.375,0.634,2.837c0.418,0.466,1.297,0.695,2.645,0.695h2.776v8.948
		H132.606z"/>
	<path fill="#FFCD05" d="M174.658,105.495c0-2.609-0.612-4.683-1.829-6.237c-1.219-1.559-3.512-2.335-6.871-2.335h-7.434v34.414
		h7.434c3.279,0,5.547-0.729,6.805-2.205c1.258-1.467,1.895-3.599,1.895-6.368V105.495z M174.022,65.785
		c0-2.604-0.607-4.687-1.819-6.242c-1.224-1.55-3.517-2.327-6.876-2.327h-6.803v30.758h6.803c3.194,0,5.443-0.729,6.74-2.205
		c1.309-1.477,1.955-3.595,1.955-6.368V65.785z M181.905,136c-2.82,2.861-7.675,4.289-14.558,4.289h-27.105v-8.952h6.81v-74.12
		h-6.81v-8.948h26.474c6.38,0,11.112,1.321,14.179,3.973c3.065,2.642,4.603,6.985,4.603,13.038v14.5c0,3.536-0.717,6.3-2.145,8.321
		c-1.428,2.016-3.906,3.488-7.442,4.411c3.194,0.5,5.7,1.744,7.502,3.716c1.805,1.976,2.711,4.851,2.711,8.635v18.4
		C186.124,128.903,184.716,133.144,181.905,136"/>
	<path fill="#FFCD05" d="M137.622,17.045c-42.588,0-77.235,34.644-77.235,77.235c0,42.585,34.646,77.224,77.235,77.224
		c42.588,0,77.232-34.639,77.232-77.224C214.854,51.689,180.21,17.045,137.622,17.045 M137.622,180.024
		c-47.286,0-85.75-38.467-85.75-85.744c0-47.283,38.464-85.75,85.75-85.75c47.278,0,85.747,38.467,85.747,85.75
		C223.369,141.557,184.9,180.024,137.622,180.024"/>
</g>
</svg>
