<?xml version="1.0" encoding="utf-8"?>
<!-- Generator: Adobe Illustrator 17.1.0, SVG Export Plug-In . SVG Version: 6.00 Build 0)  -->
<!DOCTYPE svg PUBLIC "-//W3C//DTD SVG 1.1//EN" "http://www.w3.org/Graphics/SVG/1.1/DTD/svg11.dtd">
<svg version="1.1" id="Layer_1" xmlns="http://www.w3.org/2000/svg" xmlns:xlink="http://www.w3.org/1999/xlink" x="0px" y="0px"
	 viewBox="0 0 674.364 168.317" enable-background="new 0 0 674.364 168.317" xml:space="preserve">
<g>
	<g>
		<g>
			<path fill="#FFCC00" d="M79.353,129.504c-2.976,0-5.331-0.721-7.063-2.168c-1.735-1.445-2.602-4.313-2.602-8.61V96.671
				c0-2.559-0.601-4.602-1.798-6.132c-1.197-1.528-3.449-2.292-6.752-2.292h-6.939v32.464h6.446v8.794h-24.41v-8.794h6.692V47.855
				h-6.692v-8.797h26.143c6.444,0,11.131,1.345,14.063,4.027c2.929,2.686,4.399,6.921,4.399,12.7v15.613
				c0,3.468-0.722,6.235-2.168,8.3c-1.446,2.064-3.905,3.47-7.372,4.212c6.444,1.488,9.663,5.538,9.663,12.144v21.184
				c0,1.408,0.207,2.336,0.62,2.789c0.414,0.457,1.279,0.684,2.602,0.684h2.726v8.794H79.353z M69.564,56.282
				c0-2.56-0.6-4.605-1.797-6.137c-1.199-1.526-3.451-2.29-6.754-2.29h-6.816v31.595h6.816c3.221,0,5.451-0.742,6.692-2.229
				c1.238-1.486,1.858-3.55,1.858-6.197V56.282z"/>
			<path fill="#FFCC00" d="M127.806,125.291c-2.769,2.811-7.54,4.214-14.31,4.214H86.859v-8.794h6.691V47.855h-6.691v-8.797h26.019
				c6.275,0,10.922,1.303,13.938,3.907c3.013,2.601,4.522,6.873,4.522,12.821v14.248c0,3.471-0.702,6.195-2.107,8.179
				c-1.405,1.982-3.84,3.428-7.31,4.335c3.137,0.495,5.598,1.716,7.373,3.657c1.775,1.941,2.663,4.767,2.663,8.485v18.092
				C131.958,118.315,130.574,122.485,127.806,125.291z M120.061,56.282c0-2.56-0.599-4.605-1.793-6.137
				c-1.197-1.526-3.45-2.29-6.756-2.29h-6.687v30.232h6.687c3.14,0,5.348-0.722,6.629-2.168c1.281-1.445,1.92-3.53,1.92-6.257
				V56.282z M120.684,95.309c0-2.56-0.601-4.604-1.799-6.132c-1.197-1.528-3.449-2.294-6.752-2.294h-7.308v33.826h7.308
				c3.22,0,5.453-0.722,6.692-2.172c1.236-1.441,1.858-3.533,1.858-6.255V95.309z"/>
		</g>
		<path fill="#FFCC00" d="M84.282,168.564C37.808,168.564,0,130.752,0,84.284C0,37.81,37.808,0,84.282,0
			c46.473,0,84.281,37.81,84.281,84.284C168.563,130.752,130.755,168.564,84.282,168.564z M84.282,8.37
			C42.424,8.37,8.37,42.422,8.37,84.284c0,41.858,34.053,75.91,75.911,75.91c41.86,0,75.911-34.052,75.911-75.91
			C160.193,42.422,126.142,8.37,84.282,8.37z"/>
	</g>
</g>
<g>
	<path fill="#FFCC00" d="M214.859,93.81h-9.151v27.328h6.769v8.9h-24.946v-8.9h6.769V47.429h-6.769v-8.9h27.327
		c12.536,0,18.678,5.014,18.678,16.923v21.436C233.537,88.044,228.523,93.81,214.859,93.81z M222.13,55.953
		c0-5.14-1.88-8.524-8.649-8.524h-7.772V84.91h7.772c6.518,0,8.649-3.134,8.649-8.524V55.953z"/>
	<path fill="#FFCC00" d="M238.801,130.038v-8.9h6.77V47.429h-6.77v-8.9h24.946v8.9h-6.77v73.709h6.77v8.9H238.801z"/>
	<path fill="#FFCC00" d="M305.489,63.224V46.928h-8.023v74.21h7.27v8.9h-25.949v-8.9h7.271v-74.21h-8.023v16.296h-10.154V38.529
		h47.76v24.695H305.489z"/>
	<path fill="#FFCC00" d="M356.13,63.224V46.928h-8.023v74.21h7.271v8.9H329.43v-8.9h7.271v-74.21h-8.023v16.296h-10.154V38.529
		h47.76v24.695H356.13z"/>
	<path fill="#FFCC00" d="M390.476,131.167c-12.16,0-19.305-3.51-19.305-15.669v-10.53h11.408v10.405c0,5.014,1.88,6.894,7.897,6.894
		c5.515,0,7.897-1.379,7.897-6.894V94.813c0-4.137-0.627-4.889-5.014-5.766l-10.906-1.629c-7.772-1.003-11.031-4.011-11.031-13.162
		V53.07c0-10.656,5.766-15.67,19.054-15.67c11.783,0,19.054,4.137,19.054,15.67v10.154h-11.408V53.195
		c0-4.889-2.006-6.895-7.647-6.895c-4.889,0-7.647,1.504-7.647,6.895v18.302c0,4.388,0.878,5.014,5.014,5.767l10.906,1.629
		c7.647,1.003,11.032,4.137,11.032,13.162v23.442C409.781,126.528,403.513,131.167,390.476,131.167z"/>
	<path fill="#FFCC00" d="M442.372,130.038h-26.951v-8.9h6.769V47.429h-6.769v-8.9h26.324c12.661,0,18.678,5.014,18.678,16.923
		v14.416c0,6.894-2.633,10.78-9.527,12.661c6.393,1.003,10.154,4.889,10.154,12.285v18.302
		C461.05,124.272,456.036,130.038,442.372,130.038z M449.016,55.953c0-5.14-2.006-8.524-8.649-8.524h-6.77v30.587h6.77
		c6.393,0,8.649-3.009,8.649-8.524V55.953z M449.642,95.44c0-5.14-2.006-8.524-8.649-8.524h-7.396v34.222h7.396
		c6.519,0,8.649-3.009,8.649-8.524V95.44z"/>
	<path fill="#FFCC00" d="M509.81,47.429v66.188c0,11.784-6.268,17.55-19.681,17.55c-12.786,0-19.681-5.14-19.681-17.55V47.429h-6.77
		v-8.9h24.194v8.9h-6.017v66.94c0,5.265,2.131,7.897,8.524,7.897c5.766,0,8.524-2.257,8.524-7.897v-66.94h-6.017v-8.9h23.693v8.9
		H509.81z"/>
	<path fill="#FFCC00" d="M563.086,130.038c-6.017,0-9.778-2.257-9.778-10.906V96.819c0-5.14-2.006-8.524-8.65-8.524h-7.019v32.843
		h6.518v8.9h-24.695v-8.9h6.769V47.429h-6.769v-8.9h26.45c12.912,0,18.678,5.265,18.678,16.923v15.795
		c0,7.02-2.633,11.156-9.653,12.661c6.393,1.505,9.778,5.39,9.778,12.285v21.436c0,2.758,0.627,3.51,3.259,3.51h2.758v8.9H563.086z
		 M553.183,55.953c0-5.14-2.006-8.524-8.649-8.524h-6.894v31.966h6.894c6.518,0,8.649-3.134,8.649-8.524V55.953z"/>
	<path fill="#FFCC00" d="M595.426,131.167c-13.664,0-19.681-5.766-19.681-17.299V54.7c0-10.906,5.516-17.299,19.681-17.299
		c13.539,0,19.681,5.892,19.681,17.299v9.527h-11.408V54.198c0-5.39-1.629-7.898-8.274-7.898c-5.641,0-8.273,1.504-8.273,7.898
		v60.171c0,5.766,1.88,7.897,8.273,7.897c5.892,0,8.274-1.88,8.274-7.897V94.562h-8.649v-8.9h20.057v28.205
		C615.107,124.648,609.842,131.167,595.426,131.167z"/>
	<path fill="#FFCC00" d="M650.331,130.038v-8.9h6.143V86.916h-17.299v34.222h6.142v8.9h-24.319v-8.9h6.769V47.429h-6.769v-8.9
		h24.319v8.9h-6.142v30.587h17.299V47.429h-6.143v-8.9h24.319v8.9h-6.769v73.709h6.769v8.9H650.331z"/>
</g>
</svg>
